<?xml version="1.0" encoding="UTF-8" standalone="no"?>
<svg
   xmlns:dc="http://purl.org/dc/elements/1.1/"
   xmlns:cc="http://creativecommons.org/ns#"
   xmlns:rdf="http://www.w3.org/1999/02/22-rdf-syntax-ns#"
   xmlns:svg="http://www.w3.org/2000/svg"
   xmlns="http://www.w3.org/2000/svg"
   xmlns:sodipodi="http://sodipodi.sourceforge.net/DTD/sodipodi-0.dtd"
   xmlns:inkscape="http://www.inkscape.org/namespaces/inkscape"
   aria-hidden="true"
   focusable="false"
   data-prefix="fas"
   data-icon="dog"
   class="svg-inline--fa fa-dog fa-w-18"
   role="img"
   viewBox="0 0 576 512"
   version="1.1"
   id="svg42"
   sodipodi:docname="dog-solid.svg"
   inkscape:version="1.0.1 (3bc2e813f5, 2020-09-07)">
  <metadata
     id="metadata48">
    <rdf:RDF>
      <cc:Work
         rdf:about="">
        <dc:format>image/svg+xml</dc:format>
        <dc:type
           rdf:resource="http://purl.org/dc/dcmitype/StillImage" />
      </cc:Work>
    </rdf:RDF>
  </metadata>
  <defs
     id="defs46" />
  <sodipodi:namedview
     pagecolor="#ffffff"
     bordercolor="#666666"
     borderopacity="1"
     objecttolerance="10"
     gridtolerance="10"
     guidetolerance="10"
     inkscape:pageopacity="0"
     inkscape:pageshadow="2"
     inkscape:window-width="2560"
     inkscape:window-height="1377"
     id="namedview44"
     showgrid="false"
     inkscape:zoom="1.96875"
     inkscape:cx="190.22222"
     inkscape:cy="256"
     inkscape:window-x="2552"
     inkscape:window-y="-8"
     inkscape:window-maximized="1"
     inkscape:current-layer="svg42" />
  <path
     fill="currentColor"
     d="M298.06,224,448,277.55V496a16,16,0,0,1-16,16H368a16,16,0,0,1-16-16V384H192V496a16,16,0,0,1-16,16H112a16,16,0,0,1-16-16V282.09C58.84,268.84,32,233.66,32,192a32,32,0,0,1,64,0,32.06,32.06,0,0,0,32,32ZM544,112v32a64,64,0,0,1-64,64H448v35.58L320,197.87V48c0-14.25,17.22-21.39,27.31-11.31L374.59,64h53.63c10.91,0,23.75,7.92,28.62,17.69L464,96h64A16,16,0,0,1,544,112Zm-112,0a16,16,0,1,0-16,16A16,16,0,0,0,432,112Z"
     id="path40" />
  <path
     style="fill:#0000ff;stroke-width:0.507937"
     d="m 386.03175,221.14871 c -33.94286,-12.11526 -62.69074,-22.39364 -63.88417,-22.84084 l -2.16988,-0.8131 0.13813,-76.2712 c 0.15803,-87.253802 -0.32987,-78.923524 4.93091,-84.189857 4.46705,-4.471765 10.20209,-5.807915 16.28659,-3.794452 2.57944,0.853579 3.94261,2.066141 17.77778,15.813618 l 14.98413,14.889153 28.95238,0.186381 c 25.61036,0.164868 29.30417,0.288129 32,1.067829 7.08425,2.048941 15.00287,7.27409 18.80526,12.408749 C 454.82835,78.922246 457.46042,83.6 459.70194,88 l 4.07547,8 31.60336,0.003 c 17.54599,0.0015 32.91437,0.217661 34.55074,0.485663 7.707,1.262243 12.51812,6.316537 13.6532,14.343297 0.8184,5.78743 0.20814,38.65414 -0.82051,44.18931 -2.33038,12.53983 -8.05915,23.75229 -16.78301,32.84802 -5.50183,5.73634 -10.99889,9.73278 -18.29865,13.30338 -11.70795,5.72682 -17.01299,6.56638 -41.51731,6.57042 l -18.15223,0.003 -0.13349,17.71522 -0.13348,17.71521 z m 35.73707,-93.96451 c 3.27126,-1.11463 7.5063,-5.08421 9.0085,-8.44383 1.68686,-3.77261 1.68686,-9.70813 0,-13.48074 -1.5022,-3.35962 -5.73724,-7.329202 -9.0085,-8.443833 -3.0673,-1.045135 -8.47034,-1.045135 -11.53764,0 -3.27126,1.114631 -7.5063,5.084213 -9.0085,8.443833 -0.93446,2.08988 -1.19692,3.56794 -1.19692,6.74037 0,3.17243 0.26246,4.65049 1.19692,6.74037 1.44818,3.23881 5.72006,7.32229 8.8006,8.41247 2.9125,1.03072 8.76673,1.04635 11.74554,0.0313 z"
     id="path62" />
  <path
     style="fill:#0065fc;stroke-width:0.507937;stroke:#0000ff;fill-opacity:1"
     d="m 109.56303,511.48273 c -5.25365,-0.90832 -9.53694,-4.27237 -11.871109,-9.32344 L 96.253968,499.04762 96.117877,390.43175 95.981785,281.81588 93.832163,280.98607 C 88.874022,279.07209 79.634974,274.18492 74.596281,270.8109 53.651534,256.78579 38.970327,234.79021 34.009963,210.00395 c -1.550114,-7.74571 -1.959501,-21.01896 -0.789184,-25.58715 2.85862,-11.15829 11.836878,-20.20261 22.993562,-23.16275 3.849304,-1.02132 11.738954,-1.01677 15.605822,0.009 4.880655,1.29468 10.582824,4.57129 14.215946,8.16884 6.341034,6.27894 8.669328,11.74511 9.736031,22.85738 0.75168,7.83058 1.93187,11.90367 4.86167,16.7787 2.44037,4.06063 8.39899,9.46508 12.80921,11.6179 C 120.7105,224.23343 113.9,224 210.13374,224 h 86.99968 l 74.5444,26.6267 c 40.99942,14.64468 74.9444,26.78342 75.43329,26.97498 0.84274,0.3302 0.88836,5.96954 0.87868,108.61139 -0.006,62.57798 -0.20596,109.61686 -0.47409,111.47117 -0.85518,5.91429 -3.99011,10.144 -9.35641,12.62384 l -3.11167,1.43795 -32.73298,0.15144 c -20.03856,0.0927 -33.99407,-0.0449 -35.98475,-0.35481 -5.99832,-0.93385 -10.16187,-4.02517 -12.63797,-9.38337 l -1.43795,-3.11167 -0.1435,-57.52381 L 351.96697,384 H 271.98348 192 l -0.0102,55.2381 c -0.006,30.58424 -0.21724,56.66991 -0.47408,58.44614 -0.85519,5.91429 -3.99012,10.144 -9.35641,12.62384 l -3.11168,1.43795 -33.52381,0.079 c -18.4381,0.0435 -34.62044,-0.11058 -35.96078,-0.34232 z"
     id="path64" />
  <path
     style="fill:#0065fc;fill-opacity:1;stroke:#0065fc;stroke-width:0.508;stroke-opacity:1;stroke-miterlimit:4;stroke-dasharray:none"
     d="m 383.61905,220.03551 -63.36508,-22.68602 0.0224,-62.99221 c 0.0248,-69.677748 0.39266,-89.711151 1.70706,-92.965066 0.91211,-2.258041 4.50407,-5.617129 7.81005,-7.30371 4.70181,-2.398684 10.61978,-1.826974 14.71435,1.42149 1.32703,1.052805 8.52606,7.91658 15.99784,15.252834 l 13.58507,13.338642 29.58953,0.399677 c 20.91518,0.282509 30.18516,0.582538 31.62129,1.02344 3.50927,1.077377 9.00208,4.058106 12.81879,6.956248 4.27034,3.242599 6.3885,6.210777 11.79977,16.535038 L 463.58076,96 l 15.82867,0.05441 c 8.70576,0.02992 23.9486,0.201356 33.87296,0.380952 l 18.0443,0.326548 3.44428,1.696533 c 4.01228,1.976307 6.43361,4.827917 7.83228,9.224107 0.78377,2.46348 0.88138,4.95475 0.82594,21.07936 -0.0683,19.85676 -0.50802,25.62387 -2.48236,32.55509 -1.62503,5.70487 -6.53479,15.64688 -9.98076,20.21046 -3.28233,4.34689 -8.36235,9.51052 -12.3629,12.56635 -6.91562,5.28255 -17.5241,10.34385 -24.88888,11.8745 -4.25016,0.88333 -22.11459,1.71513 -37.71429,1.75606 l -8.25397,0.0217 v 17.52381 c 0,9.6381 -0.17143,17.50758 -0.38095,17.48775 -0.20952,-0.0198 -28.89524,-10.24477 -63.74603,-22.72208 z m 39.60411,-93.32976 c 3.11871,-1.55412 6.45889,-5.04071 7.85702,-8.20142 1.42416,-3.21954 1.42416,-9.78912 0,-13.00866 -1.39813,-3.16071 -4.73831,-6.647299 -7.85702,-8.201422 C 421.01137,96.192066 419.93944,96 416,96 c -3.93944,0 -5.01137,0.192066 -7.22316,1.294248 -3.03725,1.513529 -6.41879,4.989582 -7.78822,8.005912 -1.35648,2.98781 -1.35648,10.41187 0,13.39968 1.36943,3.01633 4.75097,6.49238 7.78822,8.00591 C 410.98863,127.80793 412.06056,128 416,128 c 3.93944,0 5.01137,-0.19207 7.22316,-1.29425 z"
     id="path939" />
  <path
     style="fill:#0065fc;fill-opacity:1;stroke:#0065fc;stroke-width:0.258032;stroke-miterlimit:4;stroke-dasharray:none;stroke-opacity:1"
     d="m 113.52381,511.02132 c -5.22931,-0.26206 -6.12672,-0.45074 -8.56595,-1.80107 -3.04372,-1.68496 -5.614343,-4.53103 -7.149977,-7.9161 -1.012393,-2.23168 -1.023797,-3.14863 -1.035332,-83.2724 -0.0064,-44.55873 -0.163428,-93.5552 -0.348922,-108.88104 L 96.086364,281.28555 94.51937,280.75516 C 91.640163,279.78062 79.797963,273.53359 75.428571,270.68434 55.095825,257.42549 40.142757,235.56808 34.74318,211.21313 c -0.778708,-3.51239 -1.121382,-7.31807 -1.325565,-14.72153 -0.252372,-9.15069 -0.18656,-10.27487 0.788005,-13.46031 3.035915,-9.92315 12.107718,-18.60989 22.172601,-21.23146 3.850029,-1.0028 11.379031,-1.00658 15.214262,-0.008 9.798597,2.55221 19.647786,11.87714 22.078201,20.90301 0.310736,1.15399 1.020282,5.37679 1.576767,9.38401 1.505844,10.84342 2.706312,14.35354 6.697069,19.58199 2.80178,3.67073 7.53195,7.44038 12.36357,9.85301 l 4.08588,2.04025 9.12047,0.4617 c 5.01627,0.25393 45.23477,0.46905 89.37445,0.47803 l 80.25397,0.0164 74.64587,26.68022 c 41.05523,14.67412 74.79603,26.92319 74.97956,27.22014 0.60224,0.97445 0.96352,100.5444 0.58585,161.46212 l -0.37001,59.68252 -1.41719,2.88589 c -1.663,3.38646 -3.83567,5.43493 -7.98714,7.53059 l -3.01115,1.52002 -31.8875,-0.0157 c -17.53813,-0.009 -33.5383,-0.23013 -35.55595,-0.49224 -6.4162,-0.83351 -10.55503,-3.77942 -13.1553,-9.36362 l -1.19807,-2.5729 -0.006,-39.11111 c -0.003,-21.51111 -0.15674,-47.51111 -0.34132,-57.77778 l -0.3356,-18.66666 H 271.9176 191.74603 l -0.0605,28.31746 c -0.0333,15.57461 -0.20474,41.68889 -0.38096,58.03175 l -0.32039,29.71429 -1.41719,2.88589 c -1.663,3.38646 -3.83567,5.43493 -7.98714,7.53059 l -3.01115,1.52002 -29.60178,-0.089 c -16.28099,-0.049 -32.23036,-0.22074 -35.44306,-0.38173 z"
     id="path941" />
  <path
     style="fill:#0065fc;fill-opacity:1;stroke:#0065fc;stroke-width:0.258032;stroke-miterlimit:4;stroke-dasharray:none;stroke-opacity:1"
     d="m 112.50794,511.02026 c -7.51924,-0.47425 -11.67013,-3.161 -14.528085,-9.40358 l -1.205074,-2.63223 -0.13277,-74.12715 c -0.07303,-40.76992 -0.193315,-89.67577 -0.267316,-108.67965 l -0.134543,-34.55252 -4.821353,-2.21161 c -18.935015,-8.6857 -32.157782,-19.59121 -42.49152,-35.045 -6.550107,-9.79548 -11.219363,-20.51544 -13.960382,-32.05106 -1.048712,-4.41352 -1.315953,-7.09709 -1.549541,-15.5601 -0.25986,-9.41489 -0.197565,-10.50365 0.784685,-13.71429 2.811651,-9.19035 10.422875,-17.16953 19.67369,-20.62481 2.585722,-0.96579 4.021915,-1.12493 10.124269,-1.12183 6.270952,0.003 7.471179,0.14539 10.15873,1.20358 7.069209,2.78343 14.453506,9.19553 17.468912,15.16902 1.769001,3.50437 2.769265,7.35561 3.590192,13.82303 0.89345,7.03883 2.04837,11.73064 3.750948,15.2381 2.959688,6.09721 10.947188,13.24795 17.689628,15.83649 4.21557,1.61843 19.00657,1.88996 104.42834,1.91707 l 76.32484,0.0242 55.99262,20.02213 c 86.96737,31.09824 92.99667,33.28636 93.36592,33.88381 0.7023,1.13635 1.10555,81.466 0.75019,149.44453 -0.30278,57.92016 -0.48955,70.43312 -1.08102,72.42482 -0.93234,3.13953 -3.16329,6.16936 -5.95899,8.09285 -4.85992,3.34372 -2.79779,3.19185 -40.79653,3.00444 -32.92565,-0.1624 -34.58904,-0.21516 -36.9573,-1.17211 -3.43149,-1.38658 -6.44276,-4.18745 -8.35079,-7.76729 l -1.61379,-3.02776 -4.4e-4,-26.3416 c -2.5e-4,-14.48788 -0.15202,-40.57017 -0.33728,-57.96065 l -0.33684,-31.61905 h -80.17065 -80.17066 l -0.0565,37.71429 c -0.0311,20.74286 -0.20251,46.85714 -0.38095,58.03175 l -0.32443,20.31746 -1.42779,2.90755 c -1.62551,3.31021 -4.44262,5.9487 -8.2996,7.77334 l -2.65415,1.25561 -30.63463,-0.0837 c -16.84904,-0.0461 -32.80606,-0.22069 -35.46002,-0.38808 z"
     id="path943" />
  <path
     style="fill:#0065fc;fill-opacity:1;stroke:#0065fc;stroke-width:0.258032;stroke-miterlimit:4;stroke-dasharray:none;stroke-opacity:1"
     d="m 111.2381,510.99304 c -1.95556,-0.19253 -4.38746,-0.70822 -5.40423,-1.14599 -2.80483,-1.20763 -5.944372,-4.32076 -7.534822,-7.47143 L 96.87139,499.54745 96.492734,390.56938 96.114083,281.59131 92.247517,279.8529 C 68.937839,269.37284 53.346981,254.84883 42.628435,233.62916 c -4.483382,-8.87582 -7.779501,-19.1736 -8.853717,-27.66091 -0.70159,-5.5432 -0.684313,-19.53729 0.02742,-22.20851 1.740731,-6.53318 7.436071,-14.09056 13.641308,-18.10119 5.941529,-3.8402 7.91952,-4.36243 16.556556,-4.37131 7.116428,-0.007 7.826312,0.0808 10.760894,1.33532 4.322444,1.84785 8.104797,4.45006 11.500653,7.91228 5.779012,5.89197 7.391558,9.58116 8.987586,20.56187 0.579774,3.98887 1.405145,8.62392 1.834158,10.30012 1.613598,6.30451 6.051927,12.462 12.044847,16.71035 5.22306,3.70259 8.14707,4.92793 12.98733,5.44251 2.3984,0.25498 42.87501,0.59155 89.94802,0.74793 l 85.5873,0.28433 41.14286,14.66759 c 73.42273,26.17548 107.54678,38.50676 108.1058,39.06579 0.71326,0.71325 1.06917,141.9055 0.47511,188.47832 l -0.42438,33.26984 -1.34039,2.57192 c -1.65669,3.1788 -4.76317,6.04372 -8.31802,7.67118 l -2.70317,1.23755 -34.69112,-0.16887 c -31.89209,-0.15525 -34.88353,-0.24239 -37.07565,-1.08006 -3.2882,-1.25651 -6.53688,-4.2678 -8.39654,-7.78299 l -1.56418,-2.95666 -0.36323,-57.6508 c -0.19977,-31.70793 -0.46416,-57.82222 -0.58752,-58.03174 -0.12335,-0.20953 -36.17661,-0.38096 -80.11834,-0.38096 h -79.89407 l -0.26849,57.57739 -0.26851,57.57737 -1.40006,3.11975 c -1.59812,3.5611 -4.48092,6.48309 -8.31088,8.42388 l -2.56862,1.30161 -32.14387,-0.0745 c -17.67913,-0.041 -33.74387,-0.23201 -35.69942,-0.42453 z"
     id="path945" />
  <path
     style="fill:#0065fc;fill-opacity:1;stroke:#0065fc;stroke-width:0.258032;stroke-miterlimit:4;stroke-dasharray:none;stroke-opacity:1"
     d="m 110.1463,510.95609 c -1.71795,-0.22394 -4.01394,-0.8614 -5.1022,-1.41659 -2.52558,-1.28845 -5.734111,-4.76456 -7.105647,-7.69823 -1.053181,-2.25271 -1.073041,-2.93478 -1.375568,-47.2381 -0.168828,-24.7238 -0.307398,-73.67286 -0.307936,-108.77569 l -9.81e-4,-63.82331 -7.746031,-3.84345 C 75.739446,271.82519 67.897716,266.24326 59.364918,257.416 47.627121,245.27314 39.170026,229.99597 35.102341,213.5873 c -1.312989,-5.29648 -1.868717,-11.08524 -1.888489,-19.67154 -0.01661,-7.21302 0.127481,-8.76562 1.076374,-11.598 3.324544,-9.92353 12.759019,-18.71651 22.242712,-20.73033 3.856298,-0.81886 12.054218,-0.71032 15.572939,0.20619 8.01214,2.0869 16.393902,9.08322 20.062199,16.74606 1.438954,3.00589 2.136554,6.04478 4.022715,17.52381 0.527888,3.2127 1.443286,7.09841 2.03421,8.63492 2.357199,6.12914 9.382559,13.26211 16.525379,16.77851 2.80311,1.37996 3.9744,1.62758 9.49347,2.00699 3.4627,0.23804 44.01012,0.59266 90.10536,0.78805 l 83.80952,0.35526 55.11111,19.70491 c 63.19871,22.59662 89.37293,32.02332 92.00288,33.13504 l 1.84415,0.77955 0.38145,21.25759 c 0.20979,11.69168 0.26056,61.25759 0.1128,110.14648 -0.30197,99.91547 0.0689,91.418 -4.1975,96.16332 -1.21395,1.3502 -3.58944,3.19164 -5.27887,4.0921 l -3.07169,1.6372 -35.18232,-0.15266 c -34.70271,-0.15057 -35.21433,-0.16746 -37.53021,-1.23828 -3.16578,-1.4638 -6.20868,-4.3051 -8.04172,-7.50893 l -1.51504,-2.64801 -0.2795,-52.79142 c -0.27194,-51.36444 -0.46109,-62.55826 -1.06733,-63.16464 -0.16134,-0.1614 -36.10291,-0.29344 -79.87015,-0.29344 H 192 l -0.28811,57.6508 -0.2881,57.65079 -1.57525,3.07809 c -1.79794,3.51324 -4.54979,6.21578 -8.22611,8.07871 l -2.54104,1.28764 -32.90578,-0.0644 c -18.09817,-0.0354 -34.31136,-0.24763 -36.02931,-0.47157 z"
     id="path947" />
  <path
     style="fill:#0065fc;fill-opacity:1;stroke:#0065fc;stroke-width:0.258032;stroke-miterlimit:4;stroke-dasharray:none;stroke-opacity:1"
     d="m 109.96825,510.99559 c -3.67467,-0.47784 -6.4134,-1.93458 -9.08396,-4.8318 -4.104181,-4.45251 -3.961573,-3.38632 -4.314756,-32.25903 -0.172571,-14.10793 -0.314174,-63.05107 -0.314667,-108.76251 l -8.99e-4,-83.11172 -7.746031,-3.83323 c -17.889462,-8.85285 -30.531134,-19.74885 -40.486439,-34.89571 -5.946761,-9.04792 -11.346994,-21.86302 -13.484674,-32 -1.092228,-5.1794 -1.811363,-18.08797 -1.301666,-23.36508 0.51682,-5.35085 1.88816,-9.02243 5.052746,-13.52803 3.794508,-5.40247 8.750711,-9.39177 14.885063,-11.98116 2.414884,-1.01935 3.558378,-1.14066 10.827033,-1.1486 l 8.126984,-0.009 3.501441,1.65821 c 4.958305,2.34814 9.558892,5.77868 12.51784,9.33422 4.425519,5.31779 5.762144,8.86272 7.346418,19.48376 1.902761,12.75617 3.44028,16.28816 9.861637,22.65415 3.49547,3.46532 5.31837,4.82031 8.81758,6.55423 l 4.41115,2.18582 7.75609,0.34695 c 4.26585,0.19082 26.38467,0.38217 49.15292,0.42522 22.76826,0.043 59.68254,0.21972 82.03175,0.39263 l 40.63492,0.31437 32.50794,11.5896 c 37.12595,13.23599 95.20598,34.03992 107.02772,38.33672 4.38905,1.59527 8.38905,3.19958 8.88889,3.56513 0.86834,0.63507 0.90795,5.55473 0.89004,110.54674 l -0.0188,109.88209 -1.14024,2.86622 c -1.33813,3.36365 -4.71813,6.78487 -8.69317,8.79916 l -2.64072,1.33816 -35.14101,-0.15256 -35.14102,-0.15256 -2.64826,-1.1975 c -2.9837,-1.34916 -6.61214,-4.94501 -8.27106,-8.19674 l -1.10881,-2.17346 -0.21929,-47.04155 c -0.12061,-25.87285 -0.35386,-51.89869 -0.51835,-57.8352 L 351.63358,384 H 271.96679 192.3 l -0.27309,1.65079 c -0.15021,0.90794 -0.34017,26.79365 -0.42215,57.52381 l -0.14905,55.87302 -1.10003,2.39731 c -1.54866,3.375 -4.92655,6.84038 -8.35434,8.57072 l -2.92475,1.47641 -33.15734,-0.0666 c -18.23654,-0.0366 -34.41449,-0.23007 -35.951,-0.42987 z"
     id="path949" />
  <path
     style="fill:#0065fc;fill-opacity:1;stroke:#0065fc;stroke-width:0.258032;stroke-miterlimit:4;stroke-dasharray:none;stroke-opacity:1"
     d="m 109.71429,510.97514 c -1.39683,-0.2146 -3.18113,-0.64246 -3.96513,-0.95081 -2.37414,-0.93375 -6.755225,-5.47764 -8.035926,-8.33453 l -1.184452,-2.64218 -0.140845,-106.4127 c -0.07746,-58.52698 -0.26687,-107.37934 -0.420902,-108.56079 l -0.280056,-2.14809 -7.983258,-4.07288 C 75.275715,271.51267 68.329173,266.58098 59.870069,258.0927 48.244244,246.42678 39.523054,230.97566 35.283615,214.53347 c -1.899171,-7.36572 -2.858289,-19.98605 -2.066178,-27.18732 0.431722,-3.92488 0.8759,-5.44387 2.575162,-8.80647 2.588775,-5.12282 6.609248,-9.65249 11.428191,-12.8756 5.819267,-3.89216 7.770893,-4.39424 17.08089,-4.39424 h 7.920727 l 4.777685,2.39117 c 7.700561,3.85402 13.564601,9.96656 16.124068,16.80735 0.550649,1.47174 1.600879,6.32558 2.333846,10.7863 1.607665,9.78404 2.442383,12.86561 4.432605,16.364 3.141189,5.52157 9.618149,11.27339 15.981449,14.19223 l 2.98508,1.36925 20.06349,0.3721 c 11.03493,0.20465 51.37778,0.48357 89.6508,0.61982 l 69.5873,0.24774 63.74603,22.84303 c 75.13778,26.9252 82.11325,29.4501 83.8789,30.36156 l 1.33923,0.69133 0.36281,12.3342 c 0.19955,6.78382 0.27824,56.44849 0.17486,110.36595 l -0.18796,98.03175 -1.18514,2.64218 c -1.39514,3.11035 -5.39382,7.0777 -8.77409,8.70533 l -2.35965,1.13619 -35.48162,-0.14661 -35.48162,-0.14661 -2.56008,-1.35137 c -2.9641,-1.56464 -6.26709,-4.95513 -7.91233,-8.12195 l -1.14774,-2.20922 -0.36917,-56.63493 c -0.20305,-31.1492 -0.38851,-57.1492 -0.41215,-57.77777 L 351.74603,384 h -79.665 -79.66501 l -0.33499,11.51066 c -0.18425,6.33086 -0.33723,32.10229 -0.33996,57.26984 l -0.005,45.75918 -1.22847,2.63852 c -1.58586,3.40612 -4.79853,6.86772 -8.15745,8.78949 l -2.6642,1.52437 -33.71596,-0.0634 c -18.54377,-0.0349 -34.8588,-0.23895 -36.25562,-0.45355 z"
     id="path951" />
  <path
     style="fill:#0065fc;fill-opacity:1;stroke:#0065fc;stroke-width:0.258032;stroke-miterlimit:4;stroke-dasharray:none;stroke-opacity:1"
     d="m 109.38846,510.97438 c -3.29785,-0.55702 -5.5134,-1.7163 -8.02781,-4.20052 -3.966542,-3.91894 -4.410484,-5.41484 -4.780155,-16.10719 -0.178687,-5.16826 -0.369361,-51.2254 -0.423725,-102.34921 -0.05436,-51.12381 -0.181791,-95.98582 -0.283175,-99.69337 l -0.184335,-6.74099 -7.157506,-3.58558 c -3.93663,-1.97206 -9.000635,-4.72872 -11.253341,-6.12589 -20.751881,-12.87073 -36.455715,-34.60349 -42.23799,-58.45378 -1.73518,-7.15713 -2.646803,-20.04384 -1.868311,-26.41045 0.836582,-6.84168 3.455164,-11.94375 8.950337,-17.43892 3.259047,-3.25905 5.051509,-4.57782 8.638343,-6.3555 l 4.525977,-2.24314 h 8.674076 8.674076 l 4.629144,2.42835 c 7.628755,4.00187 13.356989,10.08001 15.896534,16.86756 0.570692,1.52531 1.621867,6.26486 2.335944,10.53234 2.024082,12.09632 3.236547,15.47954 7.360277,20.53793 5.05179,6.19678 12.38295,10.67101 18.7262,11.42866 2.13252,0.25471 42.73444,0.64663 90.2265,0.87094 l 86.34921,0.40784 32,11.46342 c 52.54555,18.82348 103.69901,37.20795 110.54934,39.73124 l 6.42235,2.36564 0.34994,9.2386 c 0.19246,5.08122 0.27383,54.95288 0.18082,110.82589 l -0.16912,101.58731 -1.34613,2.54974 c -1.55875,2.95247 -5.46428,6.79227 -8.46625,8.32376 -2.05474,1.04825 -2.56912,1.063 -37.06102,1.063 -30.89241,0 -35.25907,-0.096 -37.38937,-0.82184 -3.1789,-1.08317 -7.78436,-5.38632 -9.5785,-8.94978 l -1.39682,-2.77432 v -37.58035 c 0,-20.66919 -0.15143,-46.53207 -0.3365,-57.47306 L 351.58097,384 h -79.58089 -79.5809 l -0.33657,20.65467 c -0.18512,11.36007 -0.33658,37.19624 -0.33658,57.41371 v 36.75904 l -1.30162,2.56862 c -1.7154,3.38518 -4.93016,6.81425 -8.08483,8.62377 l -2.55006,1.46272 -34.03174,-0.055 c -18.71746,-0.0302 -35.09265,-0.23417 -36.38932,-0.45318 z"
     id="path953" />
  <path
     style="fill:#0065fc;fill-opacity:1;stroke:#0065fc;stroke-width:0.258032;stroke-miterlimit:4;stroke-dasharray:none;stroke-opacity:1"
     d="m 108.90309,510.97761 c -1.28426,-0.21724 -3.01215,-0.74514 -3.83977,-1.17312 -2.27883,-1.17843 -5.687762,-4.81618 -7.202601,-7.68607 L 96.507937,499.55556 96.191426,395.1746 C 96.017341,337.76508 95.845912,288.80853 95.810474,286.38227 l -0.06444,-4.41137 -6.984127,-3.50569 C 74.218974,271.16538 65.104468,264.45335 56.531244,254.73016 45.492818,242.21109 36.42433,223.80551 34.012401,209.02548 c -1.127547,-6.90949 -1.512517,-18.59864 -0.758906,-23.04332 1.524453,-8.99098 8.578149,-18.0438 17.507343,-22.46918 l 4.526022,-2.24314 8.166474,-0.17657 c 7.871897,-0.1702 8.273605,-0.12919 11.136407,1.13688 7.441523,3.29099 14.52811,9.63702 17.497421,15.66892 0.934075,1.89748 1.977437,5.33156 2.586661,8.51363 0.5616,2.93333 1.495813,7.84762 2.076028,10.92063 1.510786,8.00163 3.168635,11.14427 8.848349,16.77301 6.31707,6.26038 10.20187,8.30054 16.98595,8.92043 2.69935,0.24665 43.07934,0.59962 89.73331,0.78438 64.42389,0.25513 85.31406,0.48478 86.85714,0.95484 2.14619,0.65378 24.5439,8.65478 96.06456,34.31656 24.0609,8.63312 45.56975,16.39257 47.79743,17.24325 l 4.05034,1.54667 0.32692,4.93678 c 0.17981,2.71523 0.32811,52.26749 0.32956,110.11614 0.003,95.25278 -0.0744,105.40532 -0.81318,107.57359 -1.01961,2.99239 -5.09524,7.5275 -8.54102,9.50391 l -2.57969,1.47964 -35.58281,0.005 -35.5828,0.005 -2.58133,-1.28633 c -2.93966,-1.46489 -7.18461,-5.70487 -8.66587,-8.6557 -0.97293,-1.93819 -1.0098,-3.61118 -1.30667,-59.28166 -0.16802,-31.50796 -0.44194,-57.50796 -0.6087,-57.77778 C 351.28845,384.17848 322.29931,384 271.79925,384 h -79.3789 l -0.33716,29.03604 c -0.18544,15.96982 -0.33716,41.8049 -0.33716,57.4113 v 28.37528 l -1.47119,2.91441 c -1.63858,3.24601 -5.42426,7.07436 -8.59516,8.69203 -2.05697,1.04939 -2.52136,1.06224 -36.26262,1.00326 -18.79843,-0.0329 -35.22972,-0.23748 -36.51397,-0.45471 z"
     id="path955" />
  <path
     style="fill:#0065fc;fill-opacity:1;stroke:#0065fc;stroke-width:0.258032;stroke-miterlimit:4;stroke-dasharray:none;stroke-opacity:1"
     d="m 108.61023,510.96158 c -1.16595,-0.23054 -2.85171,-0.79759 -3.74611,-1.2601 -2.4684,-1.27646 -5.860544,-5.03272 -7.308057,-8.09252 l -1.295395,-2.73824 -0.126776,-72.80044 c -0.06973,-40.04024 -0.1923,-88.80044 -0.272381,-108.35599 l -0.145605,-35.55556 -7.441361,-3.80952 C 70.094636,269.0422 58.481104,259.11254 48.768738,244.57143 39.617325,230.87016 34.503612,217.05178 33.222454,202.56193 c -0.809175,-9.15172 -0.401043,-17.04535 1.084472,-20.97463 2.820551,-7.46053 8.812172,-14.11462 16.247189,-18.04357 l 4.303028,-2.27389 8.518396,-0.16996 8.518396,-0.16997 3.363998,1.5742 c 6.221969,2.91162 12.192612,7.90715 15.594369,13.04756 2.049687,3.09728 3.153859,6.77398 4.869648,16.21506 1.775528,9.76977 2.971785,13.58776 5.4185,17.29379 2.20041,3.33296 6.79344,7.70018 10.86797,10.33367 6.02618,3.89491 3.89849,3.70833 46.46777,4.07489 20.95238,0.18043 60.69647,0.37583 88.3202,0.43423 l 50.22496,0.10619 4.40856,1.477 c 6.58082,2.20478 133.60692,47.74816 142.25263,51.00264 l 3.30159,1.24281 0.38562,4.18502 c 0.21209,2.30176 0.32637,52.32636 0.25397,111.16577 l -0.13166,106.98075 -1.34811,2.28572 c -1.78442,3.02548 -4.67506,5.86934 -7.79474,7.66858 l -2.53969,1.46474 H 400 364.19048 l -2.55789,-1.46719 c -3.17062,-1.81865 -6.38096,-5.07659 -8.01608,-8.13494 l -1.24295,-2.32484 -0.34334,-57.14286 C 351.71771,390.40123 351.6124,385.21283 350.85747,384.63492 350.20218,384.13329 333.52646,384 271.42496,384 c -43.23171,0 -78.71372,0.17898 -78.84891,0.39773 -0.1352,0.21876 -0.39778,26.10448 -0.58351,57.52381 l -0.33769,57.12608 -1.29039,2.63323 c -1.57503,3.21407 -4.62485,6.38722 -8.01525,8.33937 l -2.53969,1.46231 -34.53968,-0.0509 c -18.99682,-0.028 -35.49365,-0.23951 -36.65961,-0.47006 z"
     id="path957" />
  <path
     style="fill:#0065fc;fill-opacity:1;stroke:#0065fc;stroke-width:0.258032;stroke-miterlimit:4;stroke-dasharray:none;stroke-opacity:1"
     d="m 107.9114,510.80026 c -4.58406,-1.23632 -8.422831,-4.67162 -10.611453,-9.49611 -0.986393,-2.17437 -1.024082,-3.28302 -1.035002,-30.44701 -0.0062,-15.50476 -0.1632,-64.31632 -0.348821,-108.47015 l -0.337488,-80.27967 -7.351573,-3.74944 C 71.743225,269.95082 60.710175,261.009 51.552771,248.63492 c -13.310493,-17.986 -19.503135,-37.10325 -18.655751,-57.592 0.195057,-4.71626 0.54977,-7.2068 1.343584,-9.43369 2.845943,-7.98376 10.371835,-15.69703 19.030313,-19.50412 2.203186,-0.96873 3.398979,-1.08924 10.808136,-1.08924 8.327058,0 8.332314,7.3e-4 11.490987,1.59333 4.922847,2.48209 8.506877,5.11366 11.890003,8.73024 4.466474,4.77467 5.938687,8.15122 7.790182,17.86691 2.262298,11.87141 2.931819,14.39108 4.723571,17.77663 2.934324,5.54449 10.486194,12.24243 16.597634,14.72085 3.53054,1.43177 19.32133,1.75926 105.39682,2.18585 l 76.69842,0.38011 25.65079,9.22241 c 14.10794,5.07233 37.76508,13.56227 52.57143,18.86655 27.46056,9.83755 66.49352,23.93595 68.87566,24.87735 1.16438,0.46015 1.35911,0.89489 1.65079,3.68556 0.18188,1.74013 0.32846,51.53034 0.32573,110.64491 l -0.005,107.48105 -1.18672,2.54841 c -1.37884,2.96096 -4.90113,6.66597 -8.14392,8.56637 l -2.2689,1.32966 H 400.2735 364.41055 l -2.43929,-1.23609 c -3.1624,-1.6025 -6.75973,-5.27893 -8.40077,-8.58545 l -1.30163,-2.6229 -0.3884,-56.97391 c -0.21362,-31.33565 -0.57881,-57.16422 -0.81154,-57.39683 -0.23273,-0.2326 -35.86569,-0.49735 -79.18437,-0.58833 -63.94735,-0.1343 -78.83747,-0.0421 -79.16663,0.49055 -0.22297,0.36078 -0.41624,7.06379 -0.42947,14.89558 -0.0132,7.83178 -0.16889,33.55389 -0.3459,57.16024 l -0.32184,42.92064 -1.28836,2.41353 c -1.47412,2.76152 -5.02301,6.42529 -7.98746,8.24604 l -2.02743,1.24523 -35.04762,-0.0184 c -26.04309,-0.0137 -35.64132,-0.17855 -37.35844,-0.64167 z"
     id="path959" />
  <path
     style="fill:#0065fc;fill-opacity:1;stroke:#0065fc;stroke-width:0.258032;stroke-miterlimit:4;stroke-dasharray:none;stroke-opacity:1"
     d="m 396.69841,511.52855 c -32.81466,-0.28869 -33.02866,-0.29729 -35.11381,-1.41262 -2.84685,-1.52276 -6.57866,-5.34981 -8.05221,-8.25774 l -1.21357,-2.39485 -0.4441,-57.21213 c -0.24425,-31.46667 -0.60217,-57.37019 -0.79535,-57.56338 -0.50633,-0.50632 -157.64068,-0.51693 -158.14765,-0.0107 -0.23308,0.23275 -0.60442,26.16159 -0.82519,57.61963 l -0.4014,57.19643 -1.37637,2.53016 c -1.65142,3.03574 -4.97789,6.46659 -7.97002,8.2201 l -2.18588,1.28101 -36.24516,-0.1432 -36.24516,-0.1432 -2.72193,-1.50764 c -3.06738,-1.69896 -5.687736,-4.48971 -7.44799,-7.9323 l -1.190766,-2.32883 -0.328127,-108.14736 c -0.18047,-59.48106 -0.414593,-108.42645 -0.520279,-108.76755 -0.105687,-0.34109 -2.999828,-2.02762 -6.431431,-3.74783 -22.767665,-11.41308 -37.004261,-25.27032 -47.1247,-45.86899 -6.018335,-12.24944 -8.487899,-22.05525 -8.986964,-35.68423 -0.376073,-10.27019 0.08698,-13.44269 2.768476,-18.96766 2.715172,-5.59434 9.439279,-12.21666 15.367754,-15.13511 l 4.336425,-2.13473 h 8.535273 8.535272 l 4.652113,2.39567 c 3.625619,1.86707 5.627858,3.35699 9.074227,6.75241 5.536874,5.455 7.037684,8.44364 8.825301,17.57428 3.537925,18.07072 4.254608,19.86891 10.335486,25.93224 4.11665,4.10476 8.05802,6.82313 11.83577,8.16316 3.33921,1.18446 21.86112,1.52168 105.78768,1.926 l 75.1746,0.36217 36.57143,13.0882 c 60.07226,21.49868 79.93835,28.6327 96.50291,34.6547 l 15.74101,5.7226 0.3567,2.03175 c 0.19619,1.11746 0.36988,51.01077 0.38598,110.87402 l 0.0293,108.84229 -1.30092,2.56724 c -1.55997,3.07846 -4.76594,6.39499 -8.03211,8.30909 -2.98315,1.74824 -0.73757,1.67735 -41.71459,1.31686 z"
     id="path961" />
  <path
     style="fill:#0065fc;fill-opacity:1;stroke:#0065fc;stroke-width:0.258032;stroke-miterlimit:4;stroke-dasharray:none;stroke-opacity:1"
     d="m 446.22222,242.40541 c -0.41905,-0.13813 -1.67619,-0.65634 -2.79365,-1.15158 -1.11746,-0.49523 -3.0316,-1.16784 -4.25363,-1.49467 -1.22204,-0.32682 -2.82204,-0.84433 -3.55556,-1.15001 -0.73352,-0.30567 -1.44795,-0.59466 -1.58763,-0.6422 -0.13969,-0.0475 -0.59683,-0.22038 -1.01588,-0.3841 -0.41904,-0.16372 -2.01904,-0.68851 -3.55555,-1.1662 -1.53651,-0.47769 -3.02222,-1.02684 -3.30159,-1.22032 -0.27936,-0.19349 -1.53651,-0.64202 -2.79365,-0.99674 -1.25714,-0.35472 -2.97143,-0.94606 -3.80952,-1.3141 -0.8381,-0.36804 -2.78096,-1.06236 -4.31746,-1.54295 -1.53651,-0.48058 -3.02223,-1.03209 -3.30159,-1.22558 -0.27937,-0.19349 -1.53651,-0.64202 -2.79365,-0.99674 -1.25715,-0.35472 -2.97143,-0.94645 -3.80953,-1.31496 -0.83809,-0.36852 -2.43809,-0.9453 -3.55555,-1.28175 -1.11746,-0.33645 -2.71746,-0.90187 -3.55556,-1.2565 -0.83809,-0.35462 -4.38095,-1.62156 -7.87301,-2.81542 -3.49207,-1.19387 -6.57778,-2.33092 -6.85715,-2.52681 -0.27936,-0.19587 -1.12642,-0.50376 -1.88236,-0.6842 -0.75593,-0.18043 -2.01307,-0.59279 -2.79365,-0.91636 -0.78057,-0.32356 -1.53351,-0.6172 -1.67319,-0.65252 -0.96385,-0.24375 -4.58009,-1.52399 -5.84127,-2.06796 -0.8381,-0.36149 -2.74961,-1.04715 -4.2478,-1.52369 -1.49819,-0.47654 -3.32676,-1.18095 -4.06349,-1.56535 -0.73673,-0.3844 -1.61034,-0.70033 -1.94136,-0.70205 -0.33102,-0.002 -1.24531,-0.26969 -2.03175,-0.59549 -0.78644,-0.32579 -1.54417,-0.61501 -1.68386,-0.64269 -0.13968,-0.0277 -0.48254,-0.18667 -0.7619,-0.35329 -0.27937,-0.16662 -1.12643,-0.45066 -1.88236,-0.6312 -0.75593,-0.18054 -2.01308,-0.59299 -2.79365,-0.91655 -0.78058,-0.32357 -1.53352,-0.6272 -1.6732,-0.67474 -0.13968,-0.0475 -0.59682,-0.22075 -1.01587,-0.38493 -0.41905,-0.16418 -1.67619,-0.57143 -2.79365,-0.905 -1.11746,-0.33358 -2.71746,-0.89551 -3.55556,-1.24875 -0.83809,-0.35323 -4.03809,-1.504 -7.11111,-2.55726 -3.07301,-1.05326 -5.81587,-2.06947 -6.09524,-2.25824 -0.27936,-0.18878 -2.53395,-0.98933 -5.01019,-1.77901 l -4.50226,-1.43579 0.33472,-70.65136 c 0.29858,-63.022125 0.48136,-78.149132 0.99793,-82.587874 0.0813,-0.698413 0.18356,-1.674696 0.22728,-2.169519 0.10858,-1.228635 4.95425,-6.1111 7.42886,-7.485264 2.46551,-1.369114 3.84297,-1.678965 7.12684,-1.603145 6.19616,0.14306 6.40508,0.30383 27.77203,21.371276 l 9.99954,9.859379 12.35231,0.14668 c 13.28524,0.157759 40.84189,0.714299 45.95878,0.928193 2.41705,0.101037 3.97944,0.55504 6.85714,1.992563 6.42216,3.208116 7.70004,4.050798 10.89119,7.182059 3.86647,3.793904 5.41145,6.087195 9.6379,14.306032 1.84389,3.585651 3.50342,6.678502 3.68785,6.873001 0.32976,0.347779 53.70824,1.205221 62.99127,1.011855 4.46099,-0.09292 4.93669,-9.6e-5 7.78822,1.519756 3.66897,1.955538 7.29334,5.922078 8.27046,9.051258 0.57674,1.84699 0.68247,6.3318 0.55083,23.36508 -0.1732,22.41004 -0.26817,24.10936 -1.60391,28.69842 -0.0813,0.27936 -0.28801,1.18833 -0.45932,2.01992 -0.17132,0.83159 -0.66138,2.3173 -1.08903,3.30158 -0.42766,0.98429 -1.22609,2.81818 -1.77429,4.07532 -1.47197,3.37554 -4.04271,8.26567 -4.82743,9.18285 -0.37734,0.44105 -0.68608,1.06962 -0.68608,1.39683 0,0.32721 -0.22857,0.59492 -0.50794,0.59492 -0.27936,0 -0.50793,0.31507 -0.50793,0.70014 0,0.38508 -2.4414,3.26021 -5.42533,6.38919 -6.7039,7.02977 -11.40871,10.51117 -18.95563,14.02653 -1.5365,0.71571 -3.36508,1.59897 -4.06349,1.9628 -1.33171,0.69373 -5.57047,2.146 -7.66251,2.6253 -4.93809,1.13134 -12.25044,1.58153 -32.45959,1.99843 -8.23858,0.16995 -15.01846,0.3493 -15.0664,0.39855 -0.048,0.0493 -0.16442,7.82554 -0.25885,17.28066 -0.0944,9.45511 -0.28598,17.25284 -0.42566,17.32828 -0.13969,0.0754 -0.59683,0.0242 -1.01588,-0.11399 z M 423.11111,126.7343 c 4.05303,-1.97622 7.98386,-6.94171 8.80006,-11.11638 1.14008,-5.8313 -0.38752,-10.98077 -4.46792,-15.06117 C 423.84807,96.961575 421.9662,96.253968 416,96.253968 c -5.9337,0 -7.69703,0.658789 -11.49429,4.294352 -3.38037,3.23641 -4.40643,5.91089 -4.41462,11.50682 -0.007,4.81652 0.59492,6.71954 3.21008,10.14819 1.45704,1.91028 5.23172,4.66916 7.28494,5.3245 2.47659,0.79048 10.29184,0.29533 12.525,-0.79353 z"
     id="path963" />
  <path
     style="fill:#0065fc;fill-opacity:1;stroke:#0065fc;stroke-width:0.258032;stroke-miterlimit:4;stroke-dasharray:none;stroke-opacity:1"
     d="m 415.23316,231.39025 c -17.4576,-6.22187 -44.99824,-16.05993 -61.20141,-21.86235 -16.20318,-5.80242 -30.43312,-10.88473 -31.6221,-11.29402 l -2.16178,-0.74415 0.0218,-61.03058 c 0.0238,-66.639288 0.4667,-92.049779 1.65364,-94.866204 0.8888,-2.108974 5.02612,-6.038363 8.03633,-7.632447 1.76988,-0.937254 3.01809,-1.179328 6.0404,-1.171458 5.93314,0.01545 7.07246,0.839573 23.58071,17.057068 l 14.31355,14.061447 29.68779,0.551977 c 18.16994,0.337829 30.47604,0.768038 31.71954,1.108882 3.66704,1.005143 10.96967,5.214317 14.23072,8.202478 3.80327,3.485006 5.53349,6.006489 10.40523,15.16369 l 3.67239,6.902837 33.77243,0.354997 33.77244,0.354996 2.86704,1.452856 c 3.4865,1.766761 6.27253,4.477451 7.81104,7.599801 1.12437,2.28189 1.15504,2.78117 1.31381,21.38406 0.22994,26.94307 -0.52422,32.49058 -5.96085,43.84672 -3.5389,7.39214 -6.88465,12.13073 -12.5794,17.81624 -5.65734,5.64816 -10.34221,8.96593 -17.66661,12.5113 -6.17276,2.98793 -10.20127,4.36023 -14.82129,5.04882 -4.91032,0.73186 -23.0233,1.53715 -34.59473,1.53805 l -9.77778,7.7e-4 v 17.23986 c 0,9.48193 -0.17365,17.34719 -0.38588,17.47836 -0.21223,0.13117 -14.66938,-4.85214 -32.12699,-11.074 z m 7.64071,-104.64466 c 2.40507,-1.21081 6.43283,-5.16815 7.77033,-7.63448 1.50919,-2.7829 1.60506,-11.24228 0.15832,-13.96825 -1.31576,-2.47916 -5.26833,-6.475157 -7.69141,-7.775911 -2.95376,-1.585631 -11.26352,-1.587119 -14.22222,-0.0025 -2.61981,1.403068 -6.15853,4.937791 -7.53301,7.524491 -1.57484,2.96373 -1.56846,11.26803 0.0109,14.24829 1.95413,3.68737 6.00745,7.16865 9.8045,8.42081 2.1337,0.70363 9.74009,0.17559 11.70255,-0.8124 z"
     id="path965" />
  <path
     style="fill:#0065fc;fill-opacity:1;stroke:#0065fc;stroke-width:0.258032;stroke-miterlimit:4;stroke-dasharray:none;stroke-opacity:1"
     d="m 444.69841,241.90218 c -2.15187,-0.71971 -108.02859,-38.50613 -119.23809,-42.55495 l -5.20635,-1.88052 0.015,-63.55875 c 0.0157,-66.75498 0.42273,-89.387626 1.66043,-92.337231 0.95176,-2.268183 4.59299,-5.774379 7.7214,-7.435065 2.08702,-1.107873 3.21868,-1.350431 6.34921,-1.360884 5.84976,-0.01953 7.01307,0.8195 23.64109,17.050925 l 14.39695,14.053578 22.25082,0.351717 c 12.23795,0.193445 26.13654,0.526253 30.88574,0.739574 l 8.63492,0.387856 4.57143,2.340914 c 5.75164,2.945269 6.92084,3.74577 10.27231,7.032986 3.18076,3.119782 3.67675,3.867641 9.02928,13.614301 l 4.06349,7.399401 33.66104,0.378814 33.66104,0.378814 3.01795,1.523454 c 3.50784,1.770753 6.13441,4.229406 7.75177,7.256216 1.14101,2.13535 1.1463,2.25069 1.1463,25.00238 0,25.20841 -0.19031,27.21543 -3.33003,35.11922 -6.54399,16.47354 -17.03418,28.04089 -32.37644,35.70092 -10.48427,5.23455 -15.538,6.01129 -42.67534,6.55904 L 448,208 l -0.13397,16.99746 c -0.0737,9.3486 -0.30225,17.1486 -0.50793,17.33333 -0.20569,0.18474 -1.40254,-0.008 -2.65969,-0.42861 z M 423.22096,126.41954 c 3.12391,-1.50719 7.06549,-6.04013 8.00599,-9.20714 1.7667,-5.94912 0.59528,-11.53076 -3.31872,-15.81331 -3.66875,-4.014196 -6.15947,-5.07586 -11.90823,-5.07586 -3.74826,0 -5.07583,0.21532 -6.96437,1.129545 -2.75074,1.331611 -6.72503,5.404525 -7.88609,8.081785 -1.11839,2.57888 -1.12339,10.34073 -0.008,12.91096 1.6097,3.71035 6.61791,8.17249 10.21532,9.10151 2.62512,0.67792 9.47075,0.0274 11.86442,-1.12749 z"
     id="path967" />
  <path
     style="fill:#0065fc;fill-opacity:1;stroke:#0065fc;stroke-width:0.258032;stroke-miterlimit:4;stroke-dasharray:none;stroke-opacity:1"
     d="m 443.1746,241.48297 c -1.81587,-0.67505 -30.15873,-10.81086 -62.98412,-22.52402 l -59.68254,-21.29665 -0.14436,-62.89464 c -0.15542,-67.711832 0.25807,-90.897973 1.66968,-93.627731 1.14671,-2.217489 5.07742,-5.878533 7.64715,-7.122518 4.55167,-2.20343 10.08302,-1.797265 14.21205,1.043588 1.18787,0.817272 8.49847,7.63238 16.24579,15.144684 l 14.08603,13.658736 23.93548,0.364426 c 13.16451,0.200434 27.05595,0.538626 30.86985,0.751538 6.77279,0.378093 7.03318,0.436246 11.17461,2.49564 5.70461,2.836717 10.25833,6.37049 13.13203,10.1907 1.30871,1.739755 4.14433,6.445607 6.30139,10.457452 l 3.92192,7.294258 3.14085,0.272493 c 1.72748,0.149871 16.93303,0.378331 33.79011,0.507692 l 30.64926,0.235195 2.62059,1.288711 c 3.75309,1.845644 5.99313,3.873416 7.71702,6.985766 l 1.50674,2.72028 -0.0272,23.61905 -0.0272,23.61905 -1.32772,4.90257 c -1.59391,5.88547 -5.83538,15.00648 -9.51207,20.45511 -3.3396,4.94907 -10.25327,11.96361 -15.26451,15.48723 -4.92639,3.46396 -13.35595,7.69559 -18.67177,9.37321 -5.70181,1.79944 -12.86573,2.40261 -33.13776,2.79002 L 448,208 l -0.25397,17.22779 c -0.15991,10.84753 -0.44208,17.27497 -0.7619,17.35517 -0.27937,0.0701 -1.99365,-0.42493 -3.80953,-1.09999 z M 423.19266,126.17296 c 2.9316,-1.39894 5.65782,-4.14865 7.35654,-7.41991 1.65235,-3.18197 1.66193,-10.38963 0.0179,-13.5061 -1.71397,-3.24915 -4.40758,-5.981487 -7.33465,-7.440108 -2.22217,-1.107363 -3.2887,-1.298905 -7.23248,-1.298905 -3.95907,0 -5.00652,0.189653 -7.26598,1.315591 -3.21568,1.602438 -7.0332,5.814842 -7.784,8.589172 -0.30241,1.11746 -0.45748,4.20317 -0.34461,6.85714 0.17543,4.12469 0.39617,5.12043 1.52012,6.85714 2.50004,3.86307 6.47495,6.78224 9.95118,7.30815 3.93399,0.59517 8.25094,0.10499 11.11595,-1.26217 z"
     id="path969" />
  <path
     style="fill:#0065fc;fill-opacity:1;stroke:#0065fc;stroke-width:0.258032;stroke-miterlimit:4;stroke-dasharray:none;stroke-opacity:1"
     d="m 394.15873,224.04262 c -28.7746,-10.2855 -57.11746,-20.41774 -62.98413,-22.51608 l -10.66666,-3.81518 -0.14255,-64.44298 c -0.138,-62.386008 0.25508,-88.83729 1.3634,-91.745853 0.72181,-1.894248 4.41215,-5.50348 7.45704,-7.29315 2.19078,-1.287657 2.99463,-1.467472 6.5602,-1.467472 3.21496,0 4.55908,0.244126 6.43676,1.169079 1.58599,0.781264 7.31332,5.937555 17.26519,15.543766 l 14.89193,14.374687 25.14751,0.366433 c 13.83112,0.201538 27.72112,0.537344 30.86666,0.746235 5.38725,0.357759 5.97099,0.507489 10.05831,2.579951 5.59446,2.836653 10.11623,6.280698 12.76137,9.719796 1.1583,1.505981 3.96151,6.155408 6.22934,10.332058 2.26784,4.17665 4.22742,7.697986 4.35462,7.825188 0.12721,0.127208 15.42553,0.405486 33.99627,0.618408 l 33.76499,0.387124 2.68096,1.438476 c 3.27646,1.758004 6.43433,4.816344 7.77888,7.533724 0.94247,1.90475 1.01497,3.30167 1.15991,22.3492 0.17474,22.96546 -0.19328,28.16766 -2.47436,34.97623 -5.23896,15.63726 -15.71629,28.63699 -29.17231,36.19553 -13.08284,7.34892 -17.33448,8.17167 -45.2539,8.75721 -9.58771,0.20108 -17.57801,0.51141 -17.75622,0.68962 -0.17821,0.17821 -0.43451,7.71193 -0.56956,16.7416 -0.24738,16.53998 -0.31611,17.70803 -1.0393,17.66237 -0.21829,-0.0138 -23.93975,-8.44047 -52.71435,-18.72597 z m 29.13406,-97.75812 c 2.58222,-1.37301 6.11992,-5.16208 7.31574,-7.83556 0.79633,-1.78032 1.06699,-3.41624 1.06699,-6.44894 0,-4.9767 -1.13336,-7.83379 -4.40561,-11.10603 -3.38403,-3.384032 -4.96498,-4.035994 -10.40081,-4.28918 -5.87831,-0.273793 -8.26505,0.53348 -11.82285,3.99889 -3.61293,3.51911 -4.5135,5.79154 -4.52716,11.42358 -0.01,3.94245 0.17645,4.97514 1.30352,7.23689 1.35471,2.71854 4.20635,5.54749 7.32025,7.26199 1.50194,0.82696 2.60528,0.95451 7.11111,0.82201 3.90842,-0.11492 5.78899,-0.3991 7.03882,-1.06365 z"
     id="path971" />
  <path
     style="fill:#0065fc;fill-opacity:1;stroke:#0065fc;stroke-width:0.258032;stroke-miterlimit:4;stroke-dasharray:none;stroke-opacity:1"
     d="m 413.20635,230.88824 c -18.29841,-6.52745 -46.64127,-16.64922 -62.98413,-22.49281 l -29.71428,-10.62471 -0.14462,-65.48854 c -0.15284,-69.207339 0.20292,-88.233222 1.70917,-91.407414 0.97932,-2.063763 4.62619,-5.440055 7.5783,-7.016031 1.61578,-0.862576 2.91569,-1.08499 6.34921,-1.086345 6.43145,-0.0025 5.62792,-0.590407 25.66431,18.776084 l 12.71193,12.286918 25.67525,0.358249 c 14.12139,0.197036 28.09783,0.55215 31.05877,0.789142 5.06165,0.405132 5.65772,0.575468 9.96967,2.848973 5.4881,2.893634 9.95102,6.397678 12.38769,9.726132 0.9833,1.343161 3.67396,5.870683 5.97927,10.06116 2.3053,4.190476 4.25812,7.699575 4.3396,7.797998 0.0815,0.09843 15.3057,0.348567 33.83162,0.555871 l 33.68348,0.376919 2.64791,1.347947 c 3.48469,1.773912 5.9664,4.003667 7.65721,6.879817 l 1.37742,2.34303 0.15853,20.8254 c 0.17277,22.69593 -0.15645,27.73586 -2.24677,34.39493 -5.7765,18.40196 -18.82108,32.76828 -36.85606,40.59048 -8.77599,3.80635 -12.62425,4.32497 -37.20529,5.01398 -10.03464,0.28128 -18.29589,0.56791 -18.35833,0.63696 -0.0624,0.0691 -0.30941,7.7642 -0.54883,17.10032 -0.26918,10.49646 -0.62917,17.03179 -0.94325,17.1242 -0.27937,0.0822 -15.47937,-5.19119 -33.77778,-11.71866 z m 8.02904,-103.9902 c 3.12896,-0.77975 8.84686,-6.28486 9.69288,-9.33215 0.73963,-2.6641 0.71493,-8.48631 -0.0471,-11.09426 -0.92273,-3.15807 -6.51392,-8.589192 -9.64581,-9.369672 -3.0884,-0.769651 -8.11529,-0.75874 -10.76376,0.02336 -3.10095,0.915713 -8.67132,6.528862 -9.46864,9.541342 -0.83743,3.16404 -0.41733,10.45419 0.7281,12.63501 1.23408,2.3496 4.8976,5.81369 7.52246,7.11297 2.51335,1.24409 8.03542,1.46687 11.98184,0.4834 z"
     id="path973" />
  <path
     style="fill:#0065fc;fill-opacity:1;stroke:#0065fc;stroke-width:0.258032;stroke-miterlimit:4;stroke-dasharray:none;stroke-opacity:1"
     d="m 437.84127,239.70542 c -4.74921,-1.66896 -33.09206,-11.77509 -62.98413,-22.45807 l -54.3492,-19.4236 -0.14234,-66.27696 c -0.14965,-69.686624 0.18322,-87.461121 1.69769,-90.652628 0.98741,-2.080807 4.62545,-5.454145 7.5875,-7.035427 1.61304,-0.861117 2.9215,-1.085897 6.34921,-1.090736 3.78735,-0.0053 4.6053,0.163118 6.66173,1.372039 2.4617,1.447172 10.04884,8.470528 23.43946,21.697743 l 8.00594,7.908251 25.77183,0.374311 c 14.17451,0.205871 28.20646,0.58348 31.18211,0.839132 4.99783,0.429385 5.75453,0.64262 9.92599,2.797092 5.31792,2.746596 9.83627,6.251663 12.35512,9.584345 0.99535,1.316953 3.74341,5.933191 6.1068,10.258306 l 4.29705,7.863842 4.57143,0.06526 c 2.51429,0.03591 17.71429,0.221724 33.77778,0.412952 l 29.20635,0.347698 2.64791,1.378382 c 3.51123,1.827784 5.9781,4.054018 7.65721,6.910258 1.33149,2.26491 1.38588,2.65637 1.63139,11.73986 0.13968,5.16825 0.12151,16.0254 -0.0404,24.12698 -0.33794,16.91282 -0.73676,19.20656 -5.0012,28.76337 -7.08893,15.88663 -20.08757,28.22207 -36.42381,34.56545 -7.29099,2.8311 -14.10421,3.51967 -42.47113,4.29227 l -11.04762,0.30089 -0.003,6.16599 c -0.003,8.09073 -0.53569,26.81617 -0.78567,27.62632 -0.10776,0.34921 -0.37452,0.62282 -0.59282,0.60804 -0.21813,-0.0148 -4.28244,-1.3924 -9.03165,-3.06135 z m -14.3489,-113.89004 c 5.34733,-3.13374 7.97738,-7.68852 7.97738,-13.81538 0,-4.8405 -0.91273,-7.21387 -4.10693,-10.67916 -3.46424,-3.758265 -5.38355,-4.525747 -11.36282,-4.543692 -5.88571,-0.01768 -7.71975,0.697808 -11.24635,4.387282 -2.8665,2.99888 -3.8486,5.15545 -4.12835,9.06524 -0.39617,5.53699 0.54037,8.66168 3.59923,12.00856 1.49846,1.63955 3.72261,3.40089 5.17075,4.09478 2.25028,1.07825 3.07433,1.19359 7.19746,1.00737 3.85724,-0.1742 5.04119,-0.43588 6.89963,-1.525 z"
     id="path975" />
  <path
     style="fill:#0065fc;fill-opacity:1;stroke:#0065fc;stroke-width:0.258032;stroke-miterlimit:4;stroke-dasharray:none;stroke-opacity:1"
     d="M 429.41002,236.78728 C 420.303,233.5257 392.02059,223.42857 366.56023,214.34921 l -46.29157,-16.50794 0.01,-68.31746 c 0.0102,-69.54248 0.30023,-85.244014 1.63309,-88.416597 0.97062,-2.310347 4.87374,-5.836362 8.14812,-7.360884 3.71373,-1.729079 8.34996,-1.70992 11.87984,0.04909 2.76225,1.376487 9.70588,7.690795 23.61104,21.471109 l 8.47142,8.395355 25.0524,0.395804 c 13.77881,0.217692 27.65163,0.546626 30.8285,0.730964 5.6033,0.325133 5.92242,0.408629 10.66666,2.790841 5.59436,2.809078 10.19065,6.318912 12.76357,9.746574 0.97778,1.302597 3.73533,5.865683 6.12788,10.140192 l 4.35011,7.771835 12.66576,0.310116 c 6.96618,0.17056 22.01437,0.341988 33.44043,0.380952 L 530.69215,96 l 2.78012,1.396825 c 3.9897,2.004557 6.95979,4.814655 8.57233,8.110565 l 1.40322,2.8681 -0.0726,20.6059 c -0.0412,11.69589 -0.31921,22.5826 -0.64287,25.17734 -0.64621,5.18046 -2.22809,10.27644 -5.08332,16.3758 -8.95147,19.12215 -28.54146,33.96155 -47.74425,36.16621 -4.63991,0.53271 -28.78553,1.52872 -37.46032,1.54525 l -4.19047,0.008 -0.002,7.74603 c -10e-4,4.26032 -0.15121,12.03175 -0.33427,17.26984 -0.28851,8.2552 -0.44055,9.51873 -1.14142,9.4857 -0.44472,-0.021 -8.25979,-2.70668 -17.36681,-5.96826 z m -6.91451,-110.48734 c 2.43534,-1.01755 5.73122,-4.09821 7.37387,-6.89238 1.23987,-2.10903 1.36872,-2.80635 1.36872,-7.40756 0,-4.60121 -0.12885,-5.29853 -1.36872,-7.40756 -1.64469,-2.79763 -4.91655,-5.853337 -7.44929,-6.957159 -2.68866,-1.171779 -10.92682,-1.128884 -13.18059,0.06862 -2.55284,1.356414 -5.58405,4.294429 -7.10704,6.888539 -1.24263,2.11655 -1.36512,2.78993 -1.34743,7.40756 0.0216,5.63995 0.48148,6.96877 3.61025,10.43195 1.93532,2.14217 4.43363,3.86357 6.65947,4.58855 1.94488,0.63347 9.31036,0.16957 11.44076,-0.72056 z"
     id="path977" />
  <path
     style="fill:#0065fc;fill-opacity:1;stroke:#0065fc;stroke-width:0.258032;stroke-miterlimit:4;stroke-dasharray:none;stroke-opacity:1"
     d="m 426.4127,235.75678 c -10.75556,-3.83851 -39.04127,-13.93953 -62.85714,-22.44671 l -43.30159,-15.4676 0.0121,-68.826 c 0.0123,-69.829458 0.32053,-85.586975 1.72733,-88.307433 0.98001,-1.895141 5.29883,-5.771919 7.76438,-6.96968 1.1191,-0.54366 3.45109,-1.019546 5.57131,-1.136931 6.56598,-0.363524 7.31189,0.187749 29.17344,21.560874 l 9.45493,9.243688 4.00538,0.202478 c 2.20297,0.111363 9.83397,0.252788 16.95777,0.314277 7.12381,0.06149 19.04387,0.316209 26.48902,0.566045 15.07162,0.505757 15.08877,0.509424 22.52686,4.816448 5.68096,3.289557 9.62897,7.61267 13.9407,15.265193 2.04626,3.631746 4.24873,7.537229 4.89438,8.678852 l 1.17389,2.075682 20.68193,0.337016 C 496.00247,95.84834 511.17104,96 518.33534,96 h 13.02601 l 3.01774,1.810596 c 3.95396,2.372314 6.10661,4.476344 7.7615,7.586234 l 1.35147,2.53968 -0.0802,21.07936 c -0.0876,23.00007 -0.42458,27.21508 -2.72942,34.13481 -3.27202,9.82344 -8.39854,18.05686 -15.9367,25.59502 -10.07714,10.07713 -22.37493,16.42246 -34.84094,17.97698 -2.65397,0.33095 -13.05397,0.86802 -23.11111,1.19349 l -18.28571,0.59177 -0.31489,13.46031 c -0.17319,7.40318 -0.34462,15.11746 -0.38096,17.14286 -0.0566,3.15541 -0.1933,3.67841 -0.95495,3.65366 -0.48889,-0.0159 -9.68889,-3.16948 -20.44444,-7.00799 z m -2.79365,-110.26334 c 3.65539,-2.02712 6.6218,-5.84958 7.38225,-9.51266 0.72528,-3.49368 0.34101,-8.14689 -0.88813,-10.7543 -1.1656,-2.47263 -5.28263,-6.550782 -7.58395,-7.512337 -2.52213,-1.053815 -10.51936,-1.060896 -13.03083,-0.01153 -2.41073,1.007264 -6.77988,5.376127 -7.82471,7.824177 -1.07241,2.51266 -1.08749,10.33428 -0.0248,12.85936 1.56323,3.71444 6.38372,7.91315 9.92719,8.6467 3.54782,0.73445 9.25914,0.005 12.04298,-1.5394 z"
     id="path979" />
  <path
     style="fill:#0065fc;fill-opacity:1;stroke:#0065fc;stroke-width:0.258032;stroke-miterlimit:4;stroke-dasharray:none;stroke-opacity:1"
     d="m 420.57143,233.71642 c -13.96826,-4.97354 -42.25397,-15.06379 -62.85714,-22.42278 l -37.46032,-13.37998 0.0185,-69.6235 c 0.0188,-70.787618 0.29248,-84.818684 1.70791,-87.555837 0.90325,-1.746679 5.40238,-5.913616 7.63863,-7.074614 0.8556,-0.444204 3.21501,-0.915275 5.24313,-1.046823 6.83729,-0.443483 7.67862,0.146865 27.19725,19.084019 l 12.0911,11.73089 5.43271,0.180889 c 2.98799,0.09949 11.26128,0.235642 18.38509,0.302562 7.12381,0.06692 18.33437,0.326068 24.91235,0.575884 13.31296,0.505595 14.10008,0.677411 20.66208,4.510295 7.30318,4.265803 9.90252,7.402243 17.57383,21.205145 l 2.84735,5.123205 24.01807,0.336528 c 13.20994,0.185087 28.31138,0.336788 33.55876,0.337113 9.25214,5.08e-4 9.61904,0.04028 12.13094,1.313158 3.46004,1.753331 7.05233,5.193286 8.54604,8.183626 1.15572,2.31372 1.22939,3.03314 1.42009,13.86888 0.11062,6.28571 -0.0325,17.14286 -0.31804,24.12698 -0.5962,14.58241 -1.27282,17.82457 -5.62811,26.96794 -7.1045,14.91498 -18.30022,25.65929 -33.99207,32.62149 -7.75571,3.44106 -15.38241,4.3581 -42.23922,5.07885 l -12.95238,0.3476 -0.31034,14.73016 c -0.17069,8.10158 -0.34212,15.81587 -0.38095,17.14285 -0.0568,1.93957 -0.24493,2.40932 -0.95951,2.39548 -0.48889,-0.009 -12.31746,-4.08647 -26.28571,-9.06001 z m 2.56992,-107.88219 c 2.19783,-1.14255 5.70676,-4.78141 6.93806,-7.19497 0.8212,-1.60969 1.04775,-3.02791 1.05894,-6.62923 0.0166,-5.33597 -0.75434,-7.2848 -4.30112,-10.87293 -3.25241,-3.290324 -5.39027,-4.098918 -10.83723,-4.098918 -5.44176,0 -7.58753,0.805216 -10.83481,4.065838 -3.50538,3.51977 -4.15008,5.2313 -4.14455,11.00273 0.005,4.58924 0.122,5.17703 1.52535,7.62399 2.13182,3.71715 6.25516,6.75157 9.76271,7.1845 3.59313,0.44348 8.92332,-0.0884 10.83265,-1.08101 z"
     id="path981" />
  <path
     style="fill:#0065fc;fill-opacity:1;stroke:#0065fc;stroke-width:0.258032;stroke-miterlimit:4;stroke-dasharray:none;stroke-opacity:1"
     d="m 443.68254,241.92802 c -1.25714,-0.43199 -26.62857,-9.46371 -56.38095,-20.07049 -29.75238,-10.60679 -57.00953,-20.31991 -60.57143,-21.58474 l -6.47619,-2.29967 0.0159,-69.90719 c 0.016,-70.280484 0.29354,-84.591594 1.69295,-87.297757 0.94376,-1.825033 5.22355,-5.844101 7.48112,-7.025383 2.44048,-1.27699 9.24754,-1.581558 11.72588,-0.524651 2.68891,1.146708 6.20727,4.239426 20.40602,17.937378 l 12.62348,12.17824 10.69651,0.333121 c 5.88309,0.183217 14.83109,0.340276 19.88446,0.349021 5.05337,0.0087 13.87868,0.218443 19.61181,0.465998 11.64622,0.50288 12.97832,0.821286 19.45985,4.651425 6.17959,3.651716 10.06322,8.104799 15.32263,17.569403 3.70945,6.675358 4.81087,8.274159 5.84127,8.479126 0.69842,0.138931 15.89842,0.405562 33.77778,0.592524 l 32.50794,0.339921 2.45852,1.24447 c 3.17227,1.60576 6.65006,4.827574 8.37101,7.754874 l 1.36094,2.31493 -0.0443,21.33333 c -0.0478,23.01055 -0.39384,27.60483 -2.57273,34.15631 -1.69194,5.08734 -6.2406,14.01179 -9.19701,18.04449 -6.92508,9.44617 -17.1932,17.61713 -27.72662,22.06371 -8.51567,3.5948 -15.27199,4.44758 -39.97787,5.04599 -7.77826,0.18839 -14.44003,0.52653 -14.80393,0.7514 -0.50826,0.31407 -0.73894,4.03432 -0.99499,16.0465 -0.18333,8.6007 -0.35476,16.15192 -0.38095,16.78049 -0.0561,1.34731 -0.84268,1.40035 -4.11112,0.27723 z M 421.4391,126.45534 c 2.43321,-0.67578 7.14254,-4.98781 8.49214,-7.77571 0.82258,-1.69922 1.05289,-3.16031 1.05289,-6.67963 0,-3.51932 -0.23031,-4.98041 -1.05289,-6.67963 -1.3496,-2.7879 -6.05893,-7.099931 -8.49214,-7.775715 -2.8695,-0.796947 -9.49431,-0.651413 -11.67764,0.256544 -2.48277,1.032482 -6.58772,5.041641 -7.7771,7.595631 -1.32108,2.83678 -1.32717,10.34711 -0.0107,13.20634 1.1932,2.59152 4.8036,6.19783 7.42318,7.41478 2.3133,1.07466 8.8879,1.31346 12.04227,0.43739 z"
     id="path983" />
  <path
     style="fill:#0065fc;fill-opacity:1;stroke:#0065fc;stroke-width:0.258032;stroke-miterlimit:4;stroke-dasharray:none;stroke-opacity:1"
     d="M 442.92063,241.78198 C 441.52381,241.25468 413.98095,231.412 381.71429,219.90937 349.44762,208.40674 322.40565,198.7659 321.62103,198.4853 l -1.42659,-0.51019 0.20715,-76.2574 c 0.15091,-55.553485 0.36765,-76.944411 0.79833,-78.787844 0.71798,-3.073225 4.54094,-7.234846 8.42362,-9.169828 3.30491,-1.647045 9.06768,-1.763875 12.18435,-0.247016 2.38509,1.16081 8.92832,7.02614 22.75876,20.400871 l 9.7921,9.469448 28.1857,0.567217 c 15.50214,0.311971 29.53132,0.786692 31.17596,1.054936 5.74633,0.937242 13.34747,5.351055 18.09195,10.505595 1.62072,1.760796 4.61007,6.265957 7.36002,11.092086 l 4.63081,8.126984 2.51111,0.306433 c 1.3811,0.168533 16.55455,0.472416 33.71877,0.675296 l 31.20768,0.368864 2.51056,1.272198 c 3.5313,1.789445 7.20709,5.40408 8.79408,8.64778 l 1.35141,2.76217 -0.29362,21.68204 c -0.37418,27.63181 -0.76609,30.05863 -6.78035,41.9853 -6.99749,13.87648 -19.56921,25.31878 -34.29413,31.21321 -7.47884,2.9938 -14.25724,3.77706 -39.4361,4.5569 -7.62288,0.23609 -13.99149,0.56097 -14.15245,0.72194 -0.16097,0.16096 -0.48143,7.79073 -0.71213,16.95503 -0.23071,9.1643 -0.43354,16.71951 -0.45073,16.78935 -0.10059,0.40863 -2.67099,-0.0596 -4.85666,-0.88469 z M 422.7605,125.78405 c 5.37168,-2.84103 8.21247,-7.51933 8.21583,-13.53008 0.003,-5.68671 -0.63793,-7.34309 -4.2336,-10.93787 -3.76095,-3.760026 -6.28244,-4.594439 -12.57956,-4.162825 -4.65913,0.319345 -6.38611,1.201346 -9.81103,5.010685 -2.6655,2.96467 -3.3306,4.92887 -3.3306,9.83604 0,5.00035 0.68092,6.92292 3.57239,10.08664 3.83623,4.19746 5.78904,4.99659 11.66004,4.77152 3.32118,-0.12732 5.34945,-0.46215 6.50653,-1.07411 z"
     id="path985" />
  <path
     style="fill:#0065fc;fill-opacity:1;stroke:#0065fc;stroke-width:0.258032;stroke-miterlimit:4;stroke-dasharray:none;stroke-opacity:1"
     d="m 441.14286,241.187 c -2.37461,-0.85174 -30.24162,-10.79169 -61.9267,-22.08879 -31.68509,-11.2971 -57.94828,-20.72991 -58.36265,-20.9618 -0.66108,-0.36996 -0.73991,-9.00453 -0.64328,-70.45363 0.10546,-67.060008 0.38828,-83.744525 1.46694,-86.539923 0.70033,-1.814942 5.79356,-6.470344 8.3467,-7.6292 3.03333,-1.376812 8.96307,-1.371604 11.81787,0.01038 2.60642,1.261749 6.55411,4.782306 21.09685,18.814212 l 11.44653,11.044454 20.80744,0.344638 c 11.44409,0.18955 25.26458,0.545814 30.7122,0.791696 l 9.90476,0.447058 5.22223,2.627456 c 9.01595,4.536187 11.67376,7.547644 20.8776,23.655563 l 2.07416,3.63006 6.7384,0.293826 c 3.70613,0.161605 18.96414,0.430227 33.9067,0.596942 l 27.1683,0.303122 2.85697,1.735517 c 3.36094,2.041661 6.54155,5.341839 8.1085,8.413299 1.11717,2.18984 1.1195,2.25606 0.84617,24.0505 -0.30724,24.49892 -0.64574,27.70957 -3.74981,35.56689 -3.59259,9.09391 -7.53209,15.21903 -14.23761,22.1366 -9.73784,10.04579 -21.50845,16.5863 -33.2741,18.48925 -2.55059,0.41253 -10.82923,0.99333 -18.39699,1.29066 -7.56776,0.29735 -16.29697,0.66578 -19.39823,0.81876 l -5.63867,0.27813 -0.32959,6.1296 c -0.18127,3.37128 -0.32958,9.60305 -0.32958,13.84836 0,4.24532 -0.14685,9.12372 -0.32633,10.84089 -0.39266,3.75675 -0.48112,3.77651 -6.78478,1.51548 z M 423.5787,125.25685 c 4.84757,-2.84087 7.00023,-6.53856 7.30246,-12.54367 0.17971,-3.57076 0.0374,-4.7784 -0.7812,-6.62897 -1.32202,-2.98865 -3.79406,-5.74182 -6.67756,-7.436957 -2.12612,-1.249894 -2.81327,-1.377412 -7.4224,-1.377412 -4.60913,0 -5.29628,0.127518 -7.4224,1.377412 -2.57099,1.511417 -5.03945,4.081167 -6.36815,6.629447 -1.07201,2.05598 -1.49754,8.55213 -0.74305,11.34343 1.07176,3.96509 4.98827,8.14161 9.07225,9.67452 3.06961,1.15218 10.28269,0.57812 13.04005,-1.0378 z"
     id="path987" />
  <path
     style="fill:#0065fc;fill-opacity:1;stroke:#0065fc;stroke-width:0.258032;stroke-miterlimit:4;stroke-dasharray:none;stroke-opacity:1"
     d="M 443.93651,242.17568 C 415.29806,232.06883 321.30675,198.49312 320.7619,198.17507 c -0.67242,-0.39252 -0.74544,-8.55118 -0.62172,-69.46864 0.13296,-65.467918 0.25928,-76.824645 0.93965,-84.479192 0.27692,-3.115476 0.41866,-3.399511 3.09852,-6.209064 3.91485,-4.104307 6.91565,-5.510237 11.76101,-5.510237 6.33998,0 6.8944,0.405111 26.75768,19.551739 l 11.71292,11.290319 21.55692,0.356732 c 11.85631,0.196202 25.67122,0.557315 30.69979,0.802474 l 9.14285,0.445742 5.33334,2.683274 c 4.41129,2.219382 6.0376,3.388177 9.40701,6.760624 3.38295,3.385994 4.87284,5.467568 8.78683,12.276329 l 4.71314,8.198984 10.26079,0.296873 c 5.64344,0.163282 20.88937,0.428465 33.87985,0.589293 l 23.61904,0.292414 2.28572,1.307418 c 3.22983,1.847452 6.98215,5.589938 8.42282,8.400738 1.22588,2.39174 1.22795,2.42409 1.21471,19.04762 -0.0173,21.66869 -0.56361,30.53645 -2.23634,36.29672 -5.37431,18.50718 -19.84969,34.63745 -37.78382,42.10345 -8.21757,3.42098 -13.80661,4.13806 -39.45273,5.06184 -8.09835,0.2917 -14.89813,0.70424 -15.11064,0.91675 -0.21251,0.21251 -0.51056,6.66088 -0.66232,14.32971 -0.35745,18.06204 -0.47991,19.28878 -1.9203,19.23657 -0.60846,-0.022 -1.79202,-0.2821 -2.63011,-0.57787 z M 422.55496,125.76717 c 2.28762,-0.95583 5.88328,-4.55562 7.15578,-7.164 1.39498,-2.85944 1.44016,-10.91051 0.0753,-13.41494 -1.3537,-2.48391 -5.71437,-6.498513 -7.87603,-7.250975 -1.01558,-0.353519 -3.90365,-0.628303 -6.41794,-0.610632 -5.28501,0.03713 -6.81753,0.638781 -10.1721,3.993337 -3.48262,3.48263 -3.99793,4.8497 -4.02582,10.68004 -0.0224,4.67264 0.0897,5.27332 1.39952,7.50159 1.57761,2.68386 5.80716,6.3095 7.89492,6.76766 0.74136,0.16269 1.5765,0.38746 1.85586,0.49949 1.07968,0.43295 8.41675,-0.29387 10.11052,-1.00157 z"
     id="path989" />
  <path
     style="fill:#0065fc;fill-opacity:1;stroke:#0065fc;stroke-width:0.258032;stroke-miterlimit:4;stroke-dasharray:none;stroke-opacity:1"
     d="m 443.1746,241.95457 c -1.25714,-0.43482 -26.62857,-9.47204 -56.38095,-20.08271 -29.75238,-10.61066 -56.72381,-20.22105 -59.93651,-21.35642 -3.2127,-1.13538 -6.14841,-2.30445 -6.52381,-2.59794 -0.56811,-0.44417 -0.63122,-11.99081 -0.37642,-68.87636 0.29465,-65.78253 0.47681,-79.318507 1.14855,-85.345615 0.27891,-2.50245 0.59486,-3.081305 3.15779,-5.785441 3.83117,-4.04226 6.77696,-5.394094 11.73675,-5.38603 6.39786,0.0104 6.78641,0.292613 26.23168,19.052576 9.52229,9.186691 12.07936,11.391523 13.46032,11.606136 0.93765,0.145719 11.07625,0.404054 22.53022,0.574078 28.69976,0.426021 36.90638,0.895635 40.0544,2.292062 10.12636,4.491941 14.83957,9.324472 22.49835,23.06796 1.63408,2.932323 3.29219,5.458464 3.68469,5.613638 0.39249,0.15518 15.67855,0.505768 33.969,0.779083 l 33.25538,0.49694 2.41077,1.312107 c 2.90471,1.580942 7.12569,5.797636 8.58732,8.578606 1.02138,1.94332 1.06319,2.72489 1.04598,19.55555 -0.0276,27.01068 -0.66261,33.08981 -4.37792,41.91229 -6.51013,15.45917 -18.05043,27.50998 -33.3378,34.81261 -9.08853,4.34149 -14.13306,5.09282 -40.99652,6.10596 -8.58209,0.32367 -15.62681,0.8003 -15.79417,1.06859 -0.36437,0.58413 -0.96402,15.54666 -0.96618,24.10808 -10e-4,3.3873 -0.14441,6.87301 -0.31901,7.74603 -0.36917,1.84585 -1.20761,1.97758 -4.76191,0.74822 z M 422.63866,125.47965 c 2.58727,-1.12282 5.66767,-4.21556 6.84904,-6.87648 1.29338,-2.91319 1.70069,-7.23599 0.99988,-10.61177 -0.49299,-2.37474 -1.07575,-3.39164 -3.35366,-5.85206 -1.51635,-1.63783 -3.53349,-3.346355 -4.48254,-3.796706 -2.41133,-1.144249 -10.90612,-1.13728 -13.3258,0.01092 -2.42014,1.148429 -6.64646,5.589646 -7.35118,7.724956 -0.69196,2.09664 -0.86752,8.20337 -0.31101,10.81828 0.76672,3.6027 5.89081,8.57951 9.82393,9.54157 2.66801,0.65261 8.61696,0.14115 11.15134,-0.95872 z"
     id="path991" />
  <path
     style="fill:#0065fc;fill-opacity:1;stroke:#0065fc;stroke-width:0.258032;stroke-miterlimit:4;stroke-dasharray:none;stroke-opacity:1"
     d="m 425.14286,235.63785 c -10.89524,-3.90306 -38.78096,-13.86001 -61.96826,-22.12656 -23.1873,-8.26654 -42.48047,-15.28835 -42.87372,-15.60402 -0.61165,-0.49099 -0.66318,-10.86732 -0.35653,-71.79314 0.36818,-73.150154 0.61645,-83.559516 2.04493,-85.739649 1.30168,-1.986615 5.46001,-5.756793 7.39489,-6.704628 2.78176,-1.362694 9.48906,-1.512781 12.27146,-0.274593 2.5953,1.154925 7.98178,5.908272 22.19041,19.582111 l 10.32223,9.933719 3.13809,0.275094 c 1.72594,0.151301 12.05237,0.408746 22.94761,0.572099 27.49267,0.412199 34.93364,0.883042 38.43643,2.432145 8.62427,3.814062 13.93965,8.955407 20.07161,19.414433 2.28736,3.901455 4.50649,7.581171 4.93139,8.177143 0.85093,1.193524 -1.96027,1.086049 51.26272,1.959863 19.11938,0.313899 18.5319,0.185285 23.80024,5.210433 5.11701,4.8808 4.99198,4.25123 4.97486,25.04934 -0.0238,28.97086 -0.68564,33.90496 -6.01867,44.87331 -6.69009,13.75941 -16.86836,23.9744 -30.66765,30.7783 -9.81897,4.84136 -14.70708,5.63316 -40.75919,6.6023 -8.10158,0.30139 -15.22921,0.65343 -15.83916,0.78231 -0.60995,0.12889 -1.22543,0.63381 -1.36773,1.12205 -0.1423,0.48824 -0.39428,7.05914 -0.55995,14.60199 -0.16567,7.54286 -0.42134,14.68572 -0.56816,15.87302 -0.24088,1.9481 -0.40018,2.15584 -1.63262,2.12906 -0.75114,-0.0163 -10.27999,-3.22308 -21.17523,-7.12613 z M 421.5873,125.91792 c 2.82575,-0.76855 7.58763,-5.66458 8.42067,-8.6579 0.99929,-3.59065 0.78184,-9.51115 -0.43708,-11.90043 -1.25423,-2.45849 -5.10662,-6.116766 -7.49001,-7.112611 -2.37906,-0.994037 -9.87188,-0.955855 -12.31942,0.06278 -2.34727,0.976899 -5.97149,4.439541 -7.26369,6.939851 -0.76106,1.47258 -0.97396,2.94816 -0.97396,6.75039 0,3.80223 0.2129,5.27781 0.97396,6.75039 1.12301,2.17295 4.67783,5.72102 6.89906,6.88595 1.81838,0.95367 9.10093,1.12189 12.19047,0.28158 z"
     id="path993" />
  <path
     style="fill:#0065fc;fill-opacity:1;stroke:#0065fc;stroke-width:0.258032;stroke-miterlimit:4;stroke-dasharray:none;stroke-opacity:1"
     d="m 440.63492,241.189 c -2.3746,-0.85064 -30.26032,-10.80121 -61.96825,-22.11238 -31.70794,-11.31117 -57.94487,-20.8085 -58.3043,-21.10516 -1.21873,-1.00592 -0.41258,-151.232717 0.83525,-155.649128 0.66501,-2.353627 3.73063,-5.812022 7.16887,-8.087337 1.8907,-1.251205 2.75097,-1.456962 6.83913,-1.635764 3.94762,-0.172656 4.98866,-0.04522 6.6802,0.817744 2.62088,1.337072 8.19348,6.272432 21.50312,19.04418 l 10.881,10.441264 4.61106,0.282622 c 2.53609,0.155443 13.18249,0.417682 23.65868,0.582753 10.47619,0.165073 22.27713,0.498612 26.2243,0.741199 6.32243,0.388567 7.57015,0.61948 10.48238,1.93995 8.52008,3.863187 13.33459,8.666201 20.07049,20.022574 l 4.71367,7.947002 2.14347,0.295858 c 1.17891,0.162718 16.35239,0.493587 33.71885,0.735264 l 31.57537,0.439416 2.60127,1.415786 c 3.26434,1.776681 7.28605,5.760317 8.64094,8.559137 0.98402,2.03273 1.03504,3.04856 1.02409,20.39162 -0.0184,29.13493 -0.67829,33.84756 -6.3254,45.17297 -6.07093,12.17539 -14.33994,21.1081 -25.8259,27.89878 -11.42413,6.75414 -17.11327,7.90585 -44.02765,8.913 -18.33758,0.6862 -18.10926,0.65276 -18.45875,2.70358 -0.15254,0.89513 -0.41797,7.79893 -0.58984,15.34178 -0.17188,7.54286 -0.43157,14.34286 -0.57708,15.11112 -0.34901,1.84262 -1.6766,1.8048 -7.29497,-0.20783 z M 421.10419,125.90901 c 2.97297,-0.74859 6.65512,-4.03239 8.17043,-7.28648 1.63399,-3.50897 1.70326,-10.09083 0.14018,-13.31973 -1.29332,-2.67165 -5.6588,-6.603143 -8.08147,-7.278063 -2.32273,-0.647081 -8.38779,-0.634439 -10.75269,0.0224 -2.44309,0.678562 -6.67014,4.517953 -8.00107,7.267293 -1.29473,2.67456 -1.48574,10.00655 -0.33259,12.76644 1.01704,2.43412 4.53224,6.0931 7.05184,7.3403 2.44055,1.20805 8.02814,1.43895 11.80537,0.48783 z"
     id="path995" />
  <path
     style="fill:#0065fc;fill-opacity:1;stroke:#0065fc;stroke-width:0.258032;stroke-miterlimit:4;stroke-dasharray:none;stroke-opacity:1"
     d="M 442.66667,241.91908 C 429.96596,237.5051 322.54939,199.04948 321.45316,198.52409 L 320,197.82764 319.86078,151.8662 c -0.15444,-50.98218 0.54419,-106.914309 1.37031,-109.70747 0.7176,-2.426259 2.97428,-5.036561 6.38514,-7.385711 2.72144,-1.874331 3.07673,-1.97642 7.5607,-2.172534 3.98092,-0.174111 5.0122,-0.0483 6.70058,0.817413 2.77743,1.424128 7.78392,5.83255 21.04312,18.529333 l 11.42858,10.943804 7.11111,0.294397 c 3.91111,0.161918 14.76825,0.42687 24.12698,0.588783 9.35873,0.161912 20.10159,0.498412 23.87302,0.747777 6.77476,0.447943 6.91364,0.481832 11.55997,2.82069 8.05762,4.056022 12.37311,8.752277 19.85697,21.608968 l 3.14106,5.396093 2.40354,0.300836 c 1.32195,0.16546 13.03211,0.425239 26.02258,0.577285 12.99048,0.152046 27.27619,0.39968 31.74604,0.550299 l 8.12698,0.273859 2.68241,1.768406 c 3.49431,2.303662 6.393,5.323872 7.69904,8.021782 0.99986,2.06544 1.04692,3.00977 1.04278,20.92333 -0.006,27.87313 -0.6651,32.95437 -5.61938,43.35159 -3.60616,7.56801 -7.56891,13.23624 -13.16838,18.83571 -7.04998,7.04997 -16.03006,12.78334 -24.70442,15.77262 -6.08463,2.09684 -11.44425,2.62151 -40.73321,3.98754 -5.49217,0.25615 -9.5376,0.66268 -9.86641,0.99149 -0.35834,0.35834 -0.71537,5.9571 -1,15.68138 -0.24348,8.31824 -0.5508,15.63835 -0.68295,16.26692 -0.28979,1.37844 -1.87504,1.45869 -5.30027,0.26829 z M 423.7326,124.63111 c 2.81345,-1.73943 5.47438,-5.03387 6.21249,-7.69156 0.86222,-3.1046 0.63415,-8.72695 -0.45096,-11.1168 -1.10833,-2.441 -4.32544,-5.833752 -6.69234,-7.057721 -2.01856,-1.04384 -6.52387,-1.488188 -10.30234,-1.016102 -3.31221,0.413836 -6.68806,2.747703 -9.17671,6.344253 -1.34461,1.9432 -1.52434,2.66758 -1.70889,6.88727 -0.12792,2.92471 0.031,5.43471 0.41859,6.60894 0.78578,2.38097 5.98914,7.65508 8.23367,8.34564 0.91872,0.28266 3.78653,0.43752 6.37291,0.34414 4.14342,-0.1496 4.98681,-0.34555 7.09358,-1.64806 z"
     id="path997" />
  <path
     style="fill:#0065fc;fill-opacity:1;stroke:#0065fc;stroke-width:0.258032;stroke-miterlimit:4;stroke-dasharray:none;stroke-opacity:1"
     d="M 442.92063,242.07129 C 438.09369,240.5166 323.38501,199.41454 321.77778,198.66377 L 320,197.83332 319.85974,149.32936 c -0.15642,-54.093027 0.51365,-104.22281 1.43544,-107.389763 0.70398,-2.418622 5.30049,-7.098981 8.31756,-8.469283 2.73943,-1.244201 9.7911,-1.323063 12.28962,-0.13744 2.32295,1.102314 8.02673,6.141898 21.00999,18.563437 5.93608,5.679251 11.10277,10.505102 11.48154,10.724113 0.37877,0.219011 11.26652,0.624837 24.19501,0.901836 12.92848,0.276998 26.66569,0.708834 30.52711,0.959635 6.49143,0.421618 7.30277,0.589917 10.76079,2.232123 8.99356,4.271025 12.7909,8.283184 21.05075,22.241634 l 3.19549,5.400097 3.87498,0.305442 c 2.13125,0.16799 14.96071,0.427358 28.50992,0.576371 32.9481,0.362352 35.24072,0.487898 37.96155,2.078781 2.83506,1.657686 6.99838,5.860147 8.26478,8.342517 0.9578,1.87744 1.01153,3.00688 1.00742,21.17805 -0.005,21.72348 -0.45283,28.58179 -2.27796,34.87996 -1.53751,5.3056 -5.78825,13.908 -9.44217,19.10853 -7.07371,10.0678 -19.31785,19.41592 -30.85986,23.56078 -6.76436,2.42916 -11.30779,2.91404 -40.93698,4.36886 -5.56848,0.27341 -10.331,0.70362 -10.58338,0.95601 -0.25239,0.25238 -0.67475,7.28493 -0.93857,15.62788 -0.26384,8.34295 -0.59138,15.68329 -0.72789,16.31186 -0.28968,1.33383 -1.82261,1.46137 -5.05425,0.4205 z M 422.34921,125.34315 c 2.25524,-0.95073 5.71332,-4.40142 6.88524,-6.87054 1.14226,-2.40663 1.53823,-8.33215 0.75128,-11.24247 -0.66214,-2.44873 -4.7194,-7.17302 -7.37563,-8.58822 -2.27473,-1.211937 -11.09465,-1.173476 -13.36727,0.05829 -2.17876,1.180896 -5.39814,4.41566 -6.51149,6.54262 -1.1131,2.12649 -1.55668,9.23956 -0.73201,11.73832 1.11654,3.38314 5.15065,7.53232 8.56989,8.81436 2.33686,0.87619 9.25904,0.61037 11.77999,-0.45236 z"
     id="path999" />
  <path
     style="fill:#0065fc;fill-opacity:1;stroke:#0065fc;stroke-width:0.258032;stroke-miterlimit:4;stroke-dasharray:none;stroke-opacity:1"
     d="M 399.74603,226.76687 C 353.30999,210.17177 326.98432,200.72562 322.4127,199.0182 l -2.66667,-0.99595 0.0214,-53.93176 c 0.0118,-29.66247 0.22004,-64.503319 0.46277,-77.424113 0.4246,-22.602799 0.4831,-23.578676 1.5449,-25.772057 1.26949,-2.622416 4.92083,-6.066119 7.87564,-7.427784 2.67293,-1.231764 9.75528,-1.318227 12.21889,-0.149171 2.43477,1.155374 7.46464,5.576273 20.86684,18.340454 l 11.7524,11.192917 10.59681,0.315416 c 5.82825,0.173478 17.1111,0.452846 25.073,0.620817 7.9619,0.167971 17.08032,0.489988 20.26314,0.715595 5.47477,0.388065 6.0365,0.534947 10.4127,2.722748 8.24107,4.119966 11.98249,8.038669 19.08369,19.987935 l 4.23994,7.134593 5.63519,0.311365 c 3.09935,0.171251 16.60661,0.435027 30.01613,0.586169 32.42827,0.365501 32.01358,0.332216 35.82236,2.875622 3.156,2.107494 5.83477,5.022064 7.3423,7.988604 0.80627,1.5866 0.85734,3.63188 0.62136,24.88889 -0.26916,24.24566 -0.44984,26.38369 -2.79435,33.065 -5.23405,14.91588 -16.21108,27.95485 -30.33946,36.03849 -10.24247,5.8603 -16.36962,7.11897 -39.60459,8.13578 -14.82936,0.64897 -20.26072,1.03407 -20.99635,1.48871 -0.40067,0.24763 -0.74696,5.15078 -1.09977,15.57145 -0.28322,8.36551 -0.63182,15.7243 -0.77465,16.35287 -0.2053,0.90349 -0.60343,1.13734 -1.90081,1.11652 -0.90261,-0.0145 -21.7554,-7.21468 -46.33953,-16.00044 z m 23.05922,-101.79943 c 2.1989,-1.13553 5.21263,-4.21553 6.36558,-6.50557 1.17627,-2.33637 1.57005,-7.55868 0.80911,-10.73061 -0.7395,-3.08258 -4.43821,-7.50913 -7.48087,-8.952964 -2.08033,-0.987185 -8.15304,-1.294908 -11.51974,-0.583741 -2.18649,0.461867 -6.93185,4.557205 -8.33741,7.195345 -1.16347,2.18376 -1.17544,11.09365 -0.0178,13.2202 1.14697,2.10687 6.14496,6.7465 7.60624,7.06085 0.659,0.14176 1.65532,0.36767 2.21405,0.50202 2.03827,0.4901 8.54287,-0.26675 10.36081,-1.20553 z"
     id="path1001" />
  <path
     style="fill:#0065fc;fill-opacity:1;stroke:#0065fc;stroke-width:0.258032;stroke-miterlimit:4;stroke-dasharray:none;stroke-opacity:1"
     d="M 428.69841,237.13497 C 400.61549,227.12873 325.66961,200.26421 322.66667,199.12765 l -2.92064,-1.1054 0.0195,-55.96351 c 0.0241,-69.055147 0.52721,-97.691045 1.77104,-100.799684 0.9923,-2.480004 5.08313,-6.411933 8.11421,-7.799032 2.51287,-1.149951 9.63091,-1.299787 12.07981,-0.254282 2.2262,0.950428 7.3369,5.414289 20.3617,17.784611 6.06449,5.759754 11.53179,10.798901 12.14956,11.198105 0.90101,0.582235 5.99676,0.837819 25.75814,1.29193 33.3977,0.767472 35.02294,0.906452 40.28172,3.444643 5.31965,2.56757 9.78184,5.950559 12.60268,9.554664 1.22469,1.564743 4.28791,6.196934 6.80715,10.293755 l 4.58044,7.448772 5.57829,0.318502 c 3.06806,0.175177 16.89258,0.466194 30.72115,0.646699 31.78295,0.414878 31.2177,0.367477 35.07131,2.940821 1.66421,1.111319 3.79694,2.972806 4.73941,4.136636 3.49819,4.31987 3.36524,3.325 3.35078,25.07498 -0.018,27.10482 -0.54576,31.64828 -4.80505,41.36825 -6.32522,14.43459 -18.50653,26.90968 -32.91656,33.7104 -8.64224,4.07866 -13.20037,4.78924 -39.08632,6.09326 -8.58807,0.43263 -15.9508,0.91558 -16.36161,1.07323 -0.41082,0.15764 -0.86398,0.66551 -1.00703,1.12859 -0.14305,0.46308 -0.50262,7.47054 -0.79906,15.57212 -0.29643,8.10159 -0.66063,15.13016 -0.80934,15.61905 -0.18597,0.61138 -0.77508,0.88137 -1.88695,0.86479 -0.88911,-0.0133 -8.70228,-2.54882 -17.3626,-5.63458 z m -7.02694,-111.7396 c 2.35057,-0.72142 6.00411,-4.15914 7.35965,-6.9249 0.95751,-1.95363 1.1774,-3.22015 1.16749,-6.72444 -0.0136,-4.81948 -0.57375,-6.30954 -3.65302,-9.71792 -2.93408,-3.247681 -4.96264,-4.02716 -10.52002,-4.042342 -5.65501,-0.01544 -7.55232,0.740342 -10.85611,4.324522 -2.86486,3.10801 -3.24598,4.26192 -3.29512,9.97655 -0.0487,5.66606 0.55952,7.04273 4.79367,10.84959 2.36489,2.12624 3.06081,2.42371 7.04628,3.01192 1.41781,0.20925 6.33948,-0.25648 7.95718,-0.75298 z"
     id="path1003" />
  <path
     style="fill:#0065fc;fill-opacity:1;stroke:#0065fc;stroke-width:0.258032;stroke-miterlimit:4;stroke-dasharray:none;stroke-opacity:1"
     d="M 438.60317,240.67761 C 421.58106,234.66998 327.04683,200.82374 323.68254,199.53239 l -3.93651,-1.51099 0.0199,-58.50277 c 0.0109,-32.17651 0.22303,-67.003936 0.47129,-77.394267 0.51378,-21.503519 0.52149,-21.544487 4.7938,-25.464359 3.54912,-3.256339 5.85019,-4.12767 10.93559,-4.140912 3.25357,-0.0085 4.78082,0.230873 6.3492,0.995022 2.12634,1.035997 9.08521,7.228024 23.59083,20.991198 7.79438,7.395441 8.46747,7.911936 10.66667,8.185135 1.29102,0.160379 12.74731,0.528111 25.45843,0.817182 12.71111,0.28907 25.6934,0.737928 28.84953,0.997461 5.19212,0.426954 6.12307,0.664397 9.7787,2.494101 5.15907,2.582193 9.51741,5.941386 12.27575,9.461539 1.19646,1.526901 4.2367,6.147878 6.75608,10.26884 l 4.58071,7.492652 7.10183,0.312452 c 3.90602,0.171845 18.18755,0.466545 31.73676,0.654883 26.52354,0.368691 28.27085,0.473051 31.01066,1.85214 2.85114,1.435128 6.73974,5.224543 8.29658,8.084953 l 1.42782,2.62338 -0.24188,23.45832 c -0.26792,25.98447 -0.37989,27.04339 -3.74994,35.46339 -6.23966,15.58968 -18.17034,28.22991 -33.69562,35.69958 -8.56652,4.12161 -13.28506,4.87614 -38.34921,6.13233 -8.38095,0.42005 -15.85177,0.89346 -16.60182,1.05202 -0.96612,0.20423 -1.44298,0.68591 -1.63548,1.65203 -0.14946,0.75005 -0.52161,7.98029 -0.82701,16.0672 -0.30539,8.0869 -0.66863,14.8869 -0.80719,15.11111 -0.53073,0.85872 -3.70946,0.27697 -9.33485,-1.7084 z m -17.1559,-115.2404 c 2.33804,-0.64933 6.7443,-4.83492 7.83312,-7.44083 1.06832,-2.55686 1.1068,-9.47436 0.0658,-11.83765 -1.17815,-2.67476 -4.19062,-5.8755 -6.65081,-7.066458 -2.67007,-1.292556 -10.01073,-1.492887 -12.75088,-0.347977 -2.34712,0.980688 -5.75576,4.161695 -6.93371,6.470665 -1.46149,2.86476 -1.40562,11.14761 0.092,13.64218 1.54361,2.57114 2.94761,4.01451 5.50453,5.65887 2.03604,1.30939 2.68559,1.45196 6.60317,1.44941 2.38975,-0.002 5.19628,-0.23925 6.23672,-0.52821 z"
     id="path1005" />
  <path
     style="fill:#0065fc;fill-opacity:1;stroke:#0065fc;stroke-width:0.258032;stroke-miterlimit:4;stroke-dasharray:none;stroke-opacity:1"
     d="m 442.15873,241.93015 c -3.94765,-1.35282 -102.37711,-36.49194 -112.50794,-40.1651 L 320,198.26594 319.85694,140.91075 c -0.12976,-52.026397 0.40574,-95.203316 1.22673,-98.909169 0.46401,-2.094485 4.90418,-6.683023 7.92229,-8.187011 2.2229,-1.107717 3.30667,-1.306633 7.11899,-1.306633 3.04438,0 4.98269,0.2512 6.00081,0.777686 2.06882,1.069832 7.35424,5.673623 17.18451,14.968345 15.54936,14.702233 14.77067,14.092927 18.43565,14.425561 1.76356,0.160061 13.60646,0.538971 26.31757,0.842023 30.01281,0.71555 31.42258,0.849228 36.73627,3.483393 8.07873,4.00489 12.01685,8.148755 19.40951,20.423525 2.14392,3.559751 4.22398,6.597353 4.62238,6.750232 0.39839,0.152874 14.60282,0.509511 31.56539,0.792523 16.96258,0.283018 31.95993,0.64254 33.32744,0.798944 3.42197,0.391375 6.10878,1.883098 9.4481,5.245611 4.76899,4.80211 4.57535,3.67464 4.56035,26.55305 -0.0182,27.83929 -0.6048,32.4988 -5.35489,42.53919 -6.39277,13.51259 -16.83853,24.32785 -30.13764,31.2037 -9.72265,5.02676 -14.67056,5.92902 -39.415,7.1873 -8.38096,0.42619 -16.081,0.90594 -17.11122,1.06612 -1.83099,0.28469 -1.87967,0.35034 -2.16384,2.9186 -0.15989,1.44506 -0.52617,8.66406 -0.81395,16.04223 -0.28779,7.37817 -0.64183,13.60674 -0.78678,13.84127 -0.40225,0.65087 -3.2415,0.43656 -5.79088,-0.43709 z M 422.60317,124.84554 c 2.26852,-1.20849 5.34231,-4.44801 6.40498,-6.7503 1.37603,-2.9812 1.32454,-9.73881 -0.0954,-12.52217 -1.45454,-2.85112 -5.22836,-6.388923 -7.48321,-7.015183 -2.38345,-0.661978 -8.446,-0.672589 -10.76285,-0.01884 -2.44965,0.69122 -6.2978,4.128423 -7.57439,6.765513 -1.50899,3.11714 -1.50899,10.27371 -1e-5,13.39085 1.13202,2.33844 4.31283,5.41018 6.81249,6.5789 2.0901,0.97722 10.59844,0.68993 12.69841,-0.42878 z"
     id="path1007" />
</svg>
